STARTFONT 2.1
COMMENT $XFree86$
COMMENT ISO10646-1 extension by Markus Kuhn <mkuhn@acm.org>, 2001-03-20
COMMENT  (c) Copyright Bigelow & Holmes 1986, 1985. Lucida is a registered
COMMENT  trademark of Bigelow & Holmes. See LEGAL NOTICE file for terms 
COMMENT  of the license. 
COMMENT GRID 0014 0014 0200 0200
FONT -B&H-LucidaTypewriter-Medium-R-Normal-Sans-14-140-75-75-M-90-ISO10646-1
SIZE 14 72 72
FONTBOUNDINGBOX 14 21 -3 -5
STARTPROPERTIES 22
COMMENT Begin LogicalFontDescription
FONTNAME_REGISTRY ""
FOUNDRY "B&H"
FAMILY_NAME "LucidaTypewriter"
WEIGHT_NAME "Medium"
SLANT "R"
SETWIDTH_NAME "Normal"
ADD_STYLE_NAME "Sans"
PIXEL_SIZE 14
POINT_SIZE 140
RESOLUTION_X 75
RESOLUTION_Y 75
SPACING "M"
AVERAGE_WIDTH 90
CHARSET_REGISTRY "ISO10646"
CHARSET_ENCODING "1"
COMMENT END LogicalFontDescription
FONT_ASCENT 13
FONT_DESCENT 2
DEFAULT_CHAR 0
COPYRIGHT "Copyright Bigelow & Holmes 1986, 1985."
FACE_NAME "Lucida Sans Typewriter"
X_HEIGHT 8
CAP_HEIGHT 10
ENDPROPERTIES
CHARS 873
STARTCHAR char0
ENCODING 0
SWIDTH 602 0
DWIDTH 9 0
BBX 7 9 1 0
BITMAP
AA
00
82
00
82
00
82
00
AA
ENDCHAR
STARTCHAR space
ENCODING 32
SWIDTH 602 0
DWIDTH 9 0
BBX 1 1 0 0
BITMAP
00
ENDCHAR
STARTCHAR exclam
ENCODING 33
SWIDTH 602 0
DWIDTH 9 0
BBX 1 10 4 0
BITMAP
80
80
80
80
80
80
80
00
80
80
ENDCHAR
STARTCHAR quotedbl
ENCODING 34
SWIDTH 602 0
DWIDTH 9 0
BBX 4 3 3 8
BITMAP
90
90
90
ENDCHAR
STARTCHAR numbersign
ENCODING 35
SWIDTH 602 0
DWIDTH 9 0
BBX 8 10 0 0
BITMAP
12
12
12
7F
24
24
FE
48
48
48
ENDCHAR
STARTCHAR dollar
ENCODING 36
SWIDTH 602 0
DWIDTH 9 0
BBX 7 12 1 -1
BITMAP
10
7C
92
90
90
70
1C
12
12
92
7C
10
ENDCHAR
STARTCHAR percent
ENCODING 37
SWIDTH 602 0
DWIDTH 9 0
BBX 7 10 1 0
BITMAP
60
92
94
68
10
10
2C
52
92
0C
ENDCHAR
STARTCHAR ampersand
ENCODING 38
SWIDTH 602 0
DWIDTH 9 0
BBX 8 10 1 0
BITMAP
38
44
44
48
33
4A
84
84
8C
73
ENDCHAR
STARTCHAR quotesingle
ENCODING 39
SWIDTH 602 0
DWIDTH 9 0
BBX 1 3 4 8
BITMAP
80
80
80
ENDCHAR
STARTCHAR parenleft
ENCODING 40
SWIDTH 602 0
DWIDTH 9 0
BBX 5 12 2 -1
BITMAP
18
20
40
40
80
80
80
80
40
40
20
18
ENDCHAR
STARTCHAR parenright
ENCODING 41
SWIDTH 602 0
DWIDTH 9 0
BBX 5 12 2 -1
BITMAP
C0
20
10
10
08
08
08
08
10
10
20
C0
ENDCHAR
STARTCHAR asterisk
ENCODING 42
SWIDTH 602 0
DWIDTH 9 0
BBX 5 5 2 5
BITMAP
20
A8
50
A8
20
ENDCHAR
STARTCHAR plus
ENCODING 43
SWIDTH 602 0
DWIDTH 9 0
BBX 7 7 1 1
BITMAP
10
10
10
FE
10
10
10
ENDCHAR
STARTCHAR comma
ENCODING 44
SWIDTH 602 0
DWIDTH 9 0
BBX 3 4 3 -2
BITMAP
20
20
20
C0
ENDCHAR
STARTCHAR hyphen
ENCODING 45
SWIDTH 602 0
DWIDTH 9 0
BBX 7 1 1 4
BITMAP
FE
ENDCHAR
STARTCHAR period
ENCODING 46
SWIDTH 602 0
DWIDTH 9 0
BBX 1 2 4 0
BITMAP
80
80
ENDCHAR
STARTCHAR slash
ENCODING 47
SWIDTH 602 0
DWIDTH 9 0
BBX 6 12 2 -1
BITMAP
04
04
08
08
10
10
20
20
40
40
80
80
ENDCHAR
STARTCHAR zero
ENCODING 48
SWIDTH 602 0
DWIDTH 9 0
BBX 7 10 1 0
BITMAP
38
44
44
82
82
82
82
44
44
38
ENDCHAR
STARTCHAR one
ENCODING 49
SWIDTH 602 0
DWIDTH 9 0
BBX 3 10 2 0
BITMAP
20
60
A0
20
20
20
20
20
20
20
ENDCHAR
STARTCHAR two
ENCODING 50
SWIDTH 602 0
DWIDTH 9 0
BBX 5 10 2 0
BITMAP
70
88
08
08
10
20
40
80
80
F8
ENDCHAR
STARTCHAR three
ENCODING 51
SWIDTH 602 0
DWIDTH 9 0
BBX 5 10 2 0
BITMAP
70
88
08
10
60
10
08
08
88
70
ENDCHAR
STARTCHAR four
ENCODING 52
SWIDTH 602 0
DWIDTH 9 0
BBX 7 10 2 0
BITMAP
08
18
28
48
88
88
FE
08
08
08
ENDCHAR
STARTCHAR five
ENCODING 53
SWIDTH 602 0
DWIDTH 9 0
BBX 6 10 1 0
BITMAP
7C
40
40
40
78
04
04
04
88
70
ENDCHAR
STARTCHAR six
ENCODING 54
SWIDTH 602 0
DWIDTH 9 0
BBX 6 10 2 0
BITMAP
38
44
80
B0
C8
84
84
84
48
30
ENDCHAR
STARTCHAR seven
ENCODING 55
SWIDTH 602 0
DWIDTH 9 0
BBX 6 10 1 0
BITMAP
FC
04
04
08
10
20
20
40
40
40
ENDCHAR
STARTCHAR eight
ENCODING 56
SWIDTH 602 0
DWIDTH 9 0
BBX 6 10 2 0
BITMAP
78
84
84
48
30
48
84
84
84
78
ENDCHAR
STARTCHAR nine
ENCODING 57
SWIDTH 602 0
DWIDTH 9 0
BBX 6 10 1 0
BITMAP
30
48
84
84
84
4C
34
04
88
70
ENDCHAR
STARTCHAR colon
ENCODING 58
SWIDTH 602 0
DWIDTH 9 0
BBX 1 7 4 0
BITMAP
80
80
00
00
00
80
80
ENDCHAR
STARTCHAR semicolon
ENCODING 59
SWIDTH 602 0
DWIDTH 9 0
BBX 3 9 2 -2
BITMAP
20
20
00
00
00
20
20
20
C0
ENDCHAR
STARTCHAR less
ENCODING 60
SWIDTH 602 0
DWIDTH 9 0
BBX 4 7 2 1
BITMAP
10
20
40
80
40
20
10
ENDCHAR
STARTCHAR equal
ENCODING 61
SWIDTH 602 0
DWIDTH 9 0
BBX 7 3 1 3
BITMAP
FE
00
FE
ENDCHAR
STARTCHAR greater
ENCODING 62
SWIDTH 602 0
DWIDTH 9 0
BBX 4 7 3 1
BITMAP
80
40
20
10
20
40
80
ENDCHAR
STARTCHAR question
ENCODING 63
SWIDTH 602 0
DWIDTH 9 0
BBX 6 10 1 0
BITMAP
78
84
04
04
08
10
20
00
20
20
ENDCHAR
STARTCHAR at
ENCODING 64
SWIDTH 602 0
DWIDTH 9 0
BBX 8 10 1 0
BITMAP
1C
62
42
8E
92
92
92
4D
60
1E
ENDCHAR
STARTCHAR A
ENCODING 65
SWIDTH 602 0
DWIDTH 9 0
BBX 7 10 1 0
BITMAP
10
10
28
28
44
44
FE
82
82
82
ENDCHAR
STARTCHAR B
ENCODING 66
SWIDTH 602 0
DWIDTH 9 0
BBX 6 10 2 0
BITMAP
F8
84
84
88
F0
88
84
84
84
F8
ENDCHAR
STARTCHAR C
ENCODING 67
SWIDTH 602 0
DWIDTH 9 0
BBX 7 10 1 0
BITMAP
3C
42
80
80
80
80
80
80
42
3C
ENDCHAR
STARTCHAR D
ENCODING 68
SWIDTH 602 0
DWIDTH 9 0
BBX 6 10 2 0
BITMAP
F0
88
84
84
84
84
84
84
88
F0
ENDCHAR
STARTCHAR E
ENCODING 69
SWIDTH 602 0
DWIDTH 9 0
BBX 6 10 2 0
BITMAP
FC
80
80
80
F8
80
80
80
80
FC
ENDCHAR
STARTCHAR F
ENCODING 70
SWIDTH 602 0
DWIDTH 9 0
BBX 6 10 2 0
BITMAP
FC
80
80
80
80
FC
80
80
80
80
ENDCHAR
STARTCHAR G
ENCODING 71
SWIDTH 602 0
DWIDTH 9 0
BBX 7 10 1 0
BITMAP
3C
42
80
80
80
82
82
82
42
3E
ENDCHAR
STARTCHAR H
ENCODING 72
SWIDTH 602 0
DWIDTH 9 0
BBX 7 10 1 0
BITMAP
82
82
82
82
FE
82
82
82
82
82
ENDCHAR
STARTCHAR I
ENCODING 73
SWIDTH 602 0
DWIDTH 9 0
BBX 5 10 2 0
BITMAP
F8
20
20
20
20
20
20
20
20
F8
ENDCHAR
STARTCHAR J
ENCODING 74
SWIDTH 602 0
DWIDTH 9 0
BBX 5 10 1 0
BITMAP
78
08
08
08
08
08
08
08
10
E0
ENDCHAR
STARTCHAR K
ENCODING 75
SWIDTH 602 0
DWIDTH 9 0
BBX 6 10 2 0
BITMAP
84
88
90
A0
C0
A0
90
88
84
84
ENDCHAR
STARTCHAR L
ENCODING 76
SWIDTH 602 0
DWIDTH 9 0
BBX 6 10 2 0
BITMAP
80
80
80
80
80
80
80
80
80
FC
ENDCHAR
STARTCHAR M
ENCODING 77
SWIDTH 602 0
DWIDTH 9 0
BBX 7 10 1 0
BITMAP
C6
C6
AA
AA
AA
AA
92
92
82
82
ENDCHAR
STARTCHAR N
ENCODING 78
SWIDTH 602 0
DWIDTH 9 0
BBX 7 10 1 0
BITMAP
C2
C2
A2
A2
92
92
8A
8A
86
86
ENDCHAR
STARTCHAR O
ENCODING 79
SWIDTH 602 0
DWIDTH 9 0
BBX 7 10 1 0
BITMAP
38
44
82
82
82
82
82
82
44
38
ENDCHAR
STARTCHAR P
ENCODING 80
SWIDTH 602 0
DWIDTH 9 0
BBX 6 10 2 0
BITMAP
F8
84
84
84
88
F0
80
80
80
80
ENDCHAR
STARTCHAR Q
ENCODING 81
SWIDTH 602 0
DWIDTH 9 0
BBX 8 12 1 -2
BITMAP
38
44
82
82
82
82
82
82
44
38
04
03
ENDCHAR
STARTCHAR R
ENCODING 82
SWIDTH 602 0
DWIDTH 9 0
BBX 6 10 2 0
BITMAP
F8
84
84
84
88
F0
88
88
84
84
ENDCHAR
STARTCHAR S
ENCODING 83
SWIDTH 602 0
DWIDTH 9 0
BBX 7 10 1 0
BITMAP
7C
82
80
80
60
1C
02
02
82
7C
ENDCHAR
STARTCHAR T
ENCODING 84
SWIDTH 602 0
DWIDTH 9 0
BBX 7 10 1 0
BITMAP
FE
10
10
10
10
10
10
10
10
10
ENDCHAR
STARTCHAR U
ENCODING 85
SWIDTH 602 0
DWIDTH 9 0
BBX 7 10 1 0
BITMAP
82
82
82
82
82
82
82
82
44
38
ENDCHAR
STARTCHAR V
ENCODING 86
SWIDTH 602 0
DWIDTH 9 0
BBX 7 10 1 0
BITMAP
82
82
82
44
44
44
28
28
10
10
ENDCHAR
STARTCHAR W
ENCODING 87
SWIDTH 602 0
DWIDTH 9 0
BBX 7 10 1 0
BITMAP
82
92
92
AA
AA
AA
44
44
44
44
ENDCHAR
STARTCHAR X
ENCODING 88
SWIDTH 602 0
DWIDTH 9 0
BBX 7 10 1 0
BITMAP
82
82
44
28
10
28
44
44
82
82
ENDCHAR
STARTCHAR Y
ENCODING 89
SWIDTH 602 0
DWIDTH 9 0
BBX 7 10 1 0
BITMAP
82
82
44
44
38
10
10
10
10
10
ENDCHAR
STARTCHAR Z
ENCODING 90
SWIDTH 602 0
DWIDTH 9 0
BBX 7 10 1 0
BITMAP
FE
02
04
08
10
20
40
80
80
FE
ENDCHAR
STARTCHAR bracketleft
ENCODING 91
SWIDTH 602 0
DWIDTH 9 0
BBX 4 12 3 -1
BITMAP
F0
80
80
80
80
80
80
80
80
80
80
F0
ENDCHAR
STARTCHAR backslash
ENCODING 92
SWIDTH 602 0
DWIDTH 9 0
BBX 7 12 1 -1
BITMAP
80
40
40
20
20
10
10
08
08
04
04
02
ENDCHAR
STARTCHAR bracketright
ENCODING 93
SWIDTH 602 0
DWIDTH 9 0
BBX 4 12 2 -1
BITMAP
F0
10
10
10
10
10
10
10
10
10
10
F0
ENDCHAR
STARTCHAR asciicircum
ENCODING 94
SWIDTH 602 0
DWIDTH 9 0
BBX 5 7 2 3
BITMAP
20
20
50
50
88
88
88
ENDCHAR
STARTCHAR underscore
ENCODING 95
SWIDTH 602 0
DWIDTH 9 0
BBX 9 1 0 -1
BITMAP
FF80
ENDCHAR
STARTCHAR grave
ENCODING 96
SWIDTH 602 0
DWIDTH 9 0
BBX 4 2 2 9
BITMAP
C0
30
ENDCHAR
STARTCHAR a
ENCODING 97
SWIDTH 602 0
DWIDTH 9 0
BBX 8 8 1 0
BITMAP
78
04
04
7C
84
84
8C
73
ENDCHAR
STARTCHAR b
ENCODING 98
SWIDTH 602 0
DWIDTH 9 0
BBX 7 11 1 0
BITMAP
80
80
80
B8
C4
82
82
82
82
84
F8
ENDCHAR
STARTCHAR c
ENCODING 99
SWIDTH 602 0
DWIDTH 9 0
BBX 7 8 1 0
BITMAP
3C
42
80
80
80
80
42
3C
ENDCHAR
STARTCHAR d
ENCODING 100
SWIDTH 602 0
DWIDTH 9 0
BBX 7 11 1 0
BITMAP
02
02
02
3E
42
82
82
82
82
46
3A
ENDCHAR
STARTCHAR e
ENCODING 101
SWIDTH 602 0
DWIDTH 9 0
BBX 7 8 1 0
BITMAP
3C
42
82
FE
80
80
42
3C
ENDCHAR
STARTCHAR f
ENCODING 102
SWIDTH 602 0
DWIDTH 9 0
BBX 7 11 1 0
BITMAP
1E
20
20
20
FE
20
20
20
20
20
20
ENDCHAR
STARTCHAR g
ENCODING 103
SWIDTH 602 0
DWIDTH 9 0
BBX 7 10 1 -2
BITMAP
3E
42
82
82
82
46
3A
02
84
78
ENDCHAR
STARTCHAR h
ENCODING 104
SWIDTH 602 0
DWIDTH 9 0
BBX 7 11 1 0
BITMAP
80
80
80
9C
A6
C2
82
82
82
82
82
ENDCHAR
STARTCHAR i
ENCODING 105
SWIDTH 602 0
DWIDTH 9 0
BBX 4 11 2 0
BITMAP
10
10
00
F0
10
10
10
10
10
10
10
ENDCHAR
STARTCHAR j
ENCODING 106
SWIDTH 602 0
DWIDTH 9 0
BBX 5 13 1 -2
BITMAP
08
08
00
78
08
08
08
08
08
08
08
10
E0
ENDCHAR
STARTCHAR k
ENCODING 107
SWIDTH 602 0
DWIDTH 9 0
BBX 7 11 1 0
BITMAP
80
80
80
84
88
90
E0
90
88
84
82
ENDCHAR
STARTCHAR l
ENCODING 108
SWIDTH 602 0
DWIDTH 9 0
BBX 4 11 1 0
BITMAP
F0
10
10
10
10
10
10
10
10
10
10
ENDCHAR
STARTCHAR m
ENCODING 109
SWIDTH 602 0
DWIDTH 9 0
BBX 7 8 1 0
BITMAP
A4
DA
92
92
92
92
92
92
ENDCHAR
STARTCHAR n
ENCODING 110
SWIDTH 602 0
DWIDTH 9 0
BBX 7 8 1 0
BITMAP
9C
A6
C2
82
82
82
82
82
ENDCHAR
STARTCHAR o
ENCODING 111
SWIDTH 602 0
DWIDTH 9 0
BBX 7 8 1 0
BITMAP
38
44
82
82
82
82
44
38
ENDCHAR
STARTCHAR p
ENCODING 112
SWIDTH 602 0
DWIDTH 9 0
BBX 7 10 1 -2
BITMAP
98
A4
C2
82
82
82
84
F8
80
80
ENDCHAR
STARTCHAR q
ENCODING 113
SWIDTH 602 0
DWIDTH 9 0
BBX 7 10 1 -2
BITMAP
3E
42
82
82
82
86
4A
32
02
02
ENDCHAR
STARTCHAR r
ENCODING 114
SWIDTH 602 0
DWIDTH 9 0
BBX 6 8 2 0
BITMAP
8C
B4
C0
80
80
80
80
80
ENDCHAR
STARTCHAR s
ENCODING 115
SWIDTH 602 0
DWIDTH 9 0
BBX 7 8 1 0
BITMAP
7C
82
80
70
0C
02
82
7C
ENDCHAR
STARTCHAR t
ENCODING 116
SWIDTH 602 0
DWIDTH 9 0
BBX 7 10 1 0
BITMAP
10
10
FE
10
10
10
10
10
10
0E
ENDCHAR
STARTCHAR u
ENCODING 117
SWIDTH 602 0
DWIDTH 9 0
BBX 7 8 1 0
BITMAP
82
82
82
82
82
86
CA
72
ENDCHAR
STARTCHAR v
ENCODING 118
SWIDTH 602 0
DWIDTH 9 0
BBX 7 8 1 0
BITMAP
82
82
44
44
28
28
10
10
ENDCHAR
STARTCHAR w
ENCODING 119
SWIDTH 602 0
DWIDTH 9 0
BBX 7 8 1 0
BITMAP
82
92
92
AA
AA
44
44
44
ENDCHAR
STARTCHAR x
ENCODING 120
SWIDTH 602 0
DWIDTH 9 0
BBX 7 8 1 0
BITMAP
82
44
28
10
28
44
82
82
ENDCHAR
STARTCHAR y
ENCODING 121
SWIDTH 602 0
DWIDTH 9 0
BBX 7 10 1 -2
BITMAP
82
82
44
44
28
28
10
10
20
60
ENDCHAR
STARTCHAR z
ENCODING 122
SWIDTH 602 0
DWIDTH 9 0
BBX 7 8 1 0
BITMAP
FE
04
08
10
20
40
80
FE
ENDCHAR
STARTCHAR braceleft
ENCODING 123
SWIDTH 602 0
DWIDTH 9 0
BBX 6 12 2 -1
BITMAP
3C
40
40
20
10
E0
10
20
40
40
40
3C
ENDCHAR
STARTCHAR bar
ENCODING 124
SWIDTH 602 0
DWIDTH 9 0
BBX 1 12 4 -1
BITMAP
80
80
80
80
80
80
80
80
80
80
80
80
ENDCHAR
STARTCHAR braceright
ENCODING 125
SWIDTH 602 0
DWIDTH 9 0
BBX 6 12 1 -1
BITMAP
F0
08
08
10
20
1C
20
10
08
08
08
F0
ENDCHAR
STARTCHAR asciitilde
ENCODING 126
SWIDTH 602 0
DWIDTH 9 0
BBX 7 3 1 3
BITMAP
62
92
8C
ENDCHAR
STARTCHAR space
ENCODING 160
SWIDTH 602 0
DWIDTH 9 0
BBX 1 1 0 0
BITMAP
00
ENDCHAR
STARTCHAR exclamdown
ENCODING 161
SWIDTH 602 0
DWIDTH 9 0
BBX 1 10 4 -2
BITMAP
80
80
00
80
80
80
80
80
80
80
ENDCHAR
STARTCHAR cent
ENCODING 162
SWIDTH 602 0
DWIDTH 9 0
BBX 7 12 1 -1
BITMAP
10
10
3C
52
90
90
90
90
52
3C
10
10
ENDCHAR
STARTCHAR sterling
ENCODING 163
SWIDTH 602 0
DWIDTH 9 0
BBX 7 10 1 0
BITMAP
1C
22
20
20
FC
20
20
20
40
FE
ENDCHAR
STARTCHAR currency
ENCODING 164
SWIDTH 602 0
DWIDTH 9 0
BBX 9 9 0 0
BITMAP
8080
4100
3E00
2200
2200
2200
3E00
4100
8080
ENDCHAR
STARTCHAR yen
ENCODING 165
SWIDTH 602 0
DWIDTH 9 0
BBX 7 10 1 0
BITMAP
82
82
44
44
38
7C
10
7C
10
10
ENDCHAR
STARTCHAR brokenbar
ENCODING 166
SWIDTH 602 0
DWIDTH 9 0
BBX 1 12 4 -1
BITMAP
80
80
80
80
80
00
00
80
80
80
80
80
ENDCHAR
STARTCHAR section
ENCODING 167
SWIDTH 602 0
DWIDTH 9 0
BBX 5 11 2 -1
BITMAP
70
88
80
60
90
88
48
30
08
88
70
ENDCHAR
STARTCHAR dieresis
ENCODING 168
SWIDTH 602 0
DWIDTH 9 0
BBX 3 2 3 9
BITMAP
A0
A0
ENDCHAR
STARTCHAR copyright
ENCODING 169
SWIDTH 602 0
DWIDTH 9 0
BBX 8 10 1 0
BITMAP
3C
42
9D
A1
A1
A1
A1
9D
42
3C
ENDCHAR
STARTCHAR ordfeminine
ENCODING 170
SWIDTH 602 0
DWIDTH 9 0
BBX 6 7 1 3
BITMAP
70
08
08
78
88
98
64
ENDCHAR
STARTCHAR guillemotleft
ENCODING 171
SWIDTH 602 0
DWIDTH 9 0
BBX 7 5 1 2
BITMAP
22
44
88
44
22
ENDCHAR
STARTCHAR logicalnot
ENCODING 172
SWIDTH 602 0
DWIDTH 9 0
BBX 7 3 1 3
BITMAP
FE
02
02
ENDCHAR
STARTCHAR hyphen
ENCODING 173
SWIDTH 602 0
DWIDTH 9 0
BBX 3 1 3 4
BITMAP
E0
ENDCHAR
STARTCHAR registered
ENCODING 174
SWIDTH 602 0
DWIDTH 9 0
BBX 8 8 1 2
BITMAP
3C
42
B9
A5
B9
A5
42
3C
ENDCHAR
STARTCHAR macron
ENCODING 175
SWIDTH 602 0
DWIDTH 9 0
BBX 3 1 3 10
BITMAP
E0
ENDCHAR
STARTCHAR degree
ENCODING 176
SWIDTH 602 0
DWIDTH 9 0
BBX 4 4 2 6
BITMAP
60
90
90
60
ENDCHAR
STARTCHAR plusminus
ENCODING 177
SWIDTH 602 0
DWIDTH 9 0
BBX 7 7 1 1
BITMAP
10
10
FE
10
10
00
FE
ENDCHAR
STARTCHAR twosuperior
ENCODING 178
SWIDTH 602 0
DWIDTH 9 0
BBX 5 7 2 3
BITMAP
F0
08
08
30
40
80
F8
ENDCHAR
STARTCHAR threesuperior
ENCODING 179
SWIDTH 602 0
DWIDTH 9 0
BBX 5 7 2 3
BITMAP
F0
08
08
70
08
08
F0
ENDCHAR
STARTCHAR acute
ENCODING 180
SWIDTH 602 0
DWIDTH 9 0
BBX 4 2 3 9
BITMAP
30
C0
ENDCHAR
STARTCHAR mu
ENCODING 181
SWIDTH 602 0
DWIDTH 9 0
BBX 7 10 1 -2
BITMAP
82
82
82
82
82
86
CA
B2
80
80
ENDCHAR
STARTCHAR paragraph
ENCODING 182
SWIDTH 602 0
DWIDTH 9 0
BBX 6 11 1 -1
BITMAP
7C
94
94
94
74
14
14
14
14
14
14
ENDCHAR
STARTCHAR periodcentered
ENCODING 183
SWIDTH 602 0
DWIDTH 9 0
BBX 1 2 4 3
BITMAP
80
80
ENDCHAR
STARTCHAR cedilla
ENCODING 184
SWIDTH 602 0
DWIDTH 9 0
BBX 3 2 2 -2
BITMAP
20
C0
ENDCHAR
STARTCHAR onesuperior
ENCODING 185
SWIDTH 602 0
DWIDTH 9 0
BBX 5 7 2 3
BITMAP
60
A0
20
20
20
20
F8
ENDCHAR
STARTCHAR ordmasculine
ENCODING 186
SWIDTH 602 0
DWIDTH 9 0
BBX 6 7 1 3
BITMAP
30
48
84
84
84
48
30
ENDCHAR
STARTCHAR guillemotright
ENCODING 187
SWIDTH 602 0
DWIDTH 9 0
BBX 7 5 1 2
BITMAP
88
44
22
44
88
ENDCHAR
STARTCHAR onequarter
ENCODING 188
SWIDTH 602 0
DWIDTH 9 0
BBX 9 10 0 0
BITMAP
4400
C400
4800
4800
5300
5500
2900
2F80
4100
4100
ENDCHAR
STARTCHAR onehalf
ENCODING 189
SWIDTH 602 0
DWIDTH 9 0
BBX 9 10 0 0
BITMAP
4400
C400
4800
4800
5000
5700
1080
1300
2400
2780
ENDCHAR
STARTCHAR threequarters
ENCODING 190
SWIDTH 602 0
DWIDTH 9 0
BBX 9 10 0 0
BITMAP
E400
2400
C800
2800
D300
1500
2900
2F80
4100
4100
ENDCHAR
STARTCHAR questiondown
ENCODING 191
SWIDTH 602 0
DWIDTH 9 0
BBX 6 10 2 -2
BITMAP
10
10
00
10
20
40
80
80
84
78
ENDCHAR
STARTCHAR Agrave
ENCODING 192
SWIDTH 602 0
DWIDTH 9 0
BBX 7 13 1 0
BITMAP
60
18
00
10
10
28
28
44
44
FE
82
82
82
ENDCHAR
STARTCHAR Aacute
ENCODING 193
SWIDTH 602 0
DWIDTH 9 0
BBX 7 13 1 0
BITMAP
0C
30
00
10
10
28
28
44
44
FE
82
82
82
ENDCHAR
STARTCHAR Acircumflex
ENCODING 194
SWIDTH 602 0
DWIDTH 9 0
BBX 7 13 1 0
BITMAP
18
24
00
10
10
28
28
44
44
FE
82
82
82
ENDCHAR
STARTCHAR Atilde
ENCODING 195
SWIDTH 602 0
DWIDTH 9 0
BBX 7 13 1 0
BITMAP
1A
2C
00
10
10
28
28
44
44
FE
82
82
82
ENDCHAR
STARTCHAR Adieresis
ENCODING 196
SWIDTH 602 0
DWIDTH 9 0
BBX 7 13 1 0
BITMAP
44
44
00
10
10
28
28
44
44
FE
82
82
82
ENDCHAR
STARTCHAR Aring
ENCODING 197
SWIDTH 602 0
DWIDTH 9 0
BBX 7 12 1 0
BITMAP
10
28
10
10
28
28
44
44
FE
82
82
82
ENDCHAR
STARTCHAR AE
ENCODING 198
SWIDTH 602 0
DWIDTH 9 0
BBX 8 10 1 0
BITMAP
1F
18
28
28
4E
48
78
88
88
8F
ENDCHAR
STARTCHAR Ccedilla
ENCODING 199
SWIDTH 602 0
DWIDTH 9 0
BBX 7 12 1 -2
BITMAP
3C
42
80
80
80
80
80
80
42
3C
08
30
ENDCHAR
STARTCHAR Egrave
ENCODING 200
SWIDTH 602 0
DWIDTH 9 0
BBX 6 13 2 0
BITMAP
60
18
00
FC
80
80
80
F8
80
80
80
80
FC
ENDCHAR
STARTCHAR Eacute
ENCODING 201
SWIDTH 602 0
DWIDTH 9 0
BBX 6 13 2 0
BITMAP
18
60
00
FC
80
80
80
F8
80
80
80
80
FC
ENDCHAR
STARTCHAR Ecircumflex
ENCODING 202
SWIDTH 602 0
DWIDTH 9 0
BBX 6 13 2 0
BITMAP
30
48
00
FC
80
80
80
F8
80
80
80
80
FC
ENDCHAR
STARTCHAR Edieresis
ENCODING 203
SWIDTH 602 0
DWIDTH 9 0
BBX 6 13 2 0
BITMAP
48
48
00
FC
80
80
80
F8
80
80
80
80
FC
ENDCHAR
STARTCHAR Igrave
ENCODING 204
SWIDTH 602 0
DWIDTH 9 0
BBX 5 13 2 0
BITMAP
C0
30
00
F8
20
20
20
20
20
20
20
20
F8
ENDCHAR
STARTCHAR Iacute
ENCODING 205
SWIDTH 602 0
DWIDTH 9 0
BBX 5 13 2 0
BITMAP
18
60
00
F8
20
20
20
20
20
20
20
20
F8
ENDCHAR
STARTCHAR Icircumflex
ENCODING 206
SWIDTH 602 0
DWIDTH 9 0
BBX 5 13 2 0
BITMAP
30
48
00
F8
20
20
20
20
20
20
20
20
F8
ENDCHAR
STARTCHAR Idieresis
ENCODING 207
SWIDTH 602 0
DWIDTH 9 0
BBX 5 13 2 0
BITMAP
88
88
00
F8
20
20
20
20
20
20
20
20
F8
ENDCHAR
STARTCHAR Eth
ENCODING 208
SWIDTH 602 0
DWIDTH 9 0
BBX 8 10 0 0
BITMAP
3C
22
21
21
F9
21
21
21
22
3C
ENDCHAR
STARTCHAR Ntilde
ENCODING 209
SWIDTH 602 0
DWIDTH 9 0
BBX 7 13 1 0
BITMAP
34
58
00
C2
C2
A2
A2
92
92
8A
8A
86
86
ENDCHAR
STARTCHAR Ograve
ENCODING 210
SWIDTH 602 0
DWIDTH 9 0
BBX 7 13 1 0
BITMAP
60
18
00
38
44
82
82
82
82
82
82
44
38
ENDCHAR
STARTCHAR Oacute
ENCODING 211
SWIDTH 602 0
DWIDTH 9 0
BBX 7 13 1 0
BITMAP
0C
30
00
38
44
82
82
82
82
82
82
44
38
ENDCHAR
STARTCHAR Ocircumflex
ENCODING 212
SWIDTH 602 0
DWIDTH 9 0
BBX 7 13 1 0
BITMAP
18
24
00
38
44
82
82
82
82
82
82
44
38
ENDCHAR
STARTCHAR Otilde
ENCODING 213
SWIDTH 602 0
DWIDTH 9 0
BBX 7 13 1 0
BITMAP
34
58
00
38
44
82
82
82
82
82
82
44
38
ENDCHAR
STARTCHAR Odieresis
ENCODING 214
SWIDTH 602 0
DWIDTH 9 0
BBX 7 13 1 0
BITMAP
44
44
00
38
44
82
82
82
82
82
82
44
38
ENDCHAR
STARTCHAR multiply
ENCODING 215
SWIDTH 602 0
DWIDTH 9 0
BBX 6 6 2 2
BITMAP
84
48
30
30
48
84
ENDCHAR
STARTCHAR Oslash
ENCODING 216
SWIDTH 602 0
DWIDTH 9 0
BBX 7 10 1 0
BITMAP
3A
44
8A
8A
92
92
A2
A2
44
B8
ENDCHAR
STARTCHAR Ugrave
ENCODING 217
SWIDTH 602 0
DWIDTH 9 0
BBX 7 13 1 0
BITMAP
60
18
00
82
82
82
82
82
82
82
82
44
38
ENDCHAR
STARTCHAR Uacute
ENCODING 218
SWIDTH 602 0
DWIDTH 9 0
BBX 7 13 1 0
BITMAP
0C
30
00
82
82
82
82
82
82
82
82
44
38
ENDCHAR
STARTCHAR Ucircumflex
ENCODING 219
SWIDTH 602 0
DWIDTH 9 0
BBX 7 13 1 0
BITMAP
18
24
00
82
82
82
82
82
82
82
82
44
38
ENDCHAR
STARTCHAR Udieresis
ENCODING 220
SWIDTH 602 0
DWIDTH 9 0
BBX 7 13 1 0
BITMAP
44
44
00
82
82
82
82
82
82
82
82
44
38
ENDCHAR
STARTCHAR Yacute
ENCODING 221
SWIDTH 602 0
DWIDTH 9 0
BBX 7 13 1 0
BITMAP
0C
30
00
82
82
44
44
28
10
10
10
10
10
ENDCHAR
STARTCHAR Thorn
ENCODING 222
SWIDTH 602 0
DWIDTH 9 0
BBX 6 10 2 0
BITMAP
80
80
F8
84
84
84
88
F0
80
80
ENDCHAR
STARTCHAR germandbls
ENCODING 223
SWIDTH 602 0
DWIDTH 9 0
BBX 6 11 2 0
BITMAP
70
88
88
90
A0
98
84
84
84
84
B8
ENDCHAR
STARTCHAR agrave
ENCODING 224
SWIDTH 602 0
DWIDTH 9 0
BBX 8 11 1 0
BITMAP
60
18
00
78
04
04
7C
84
84
8C
73
ENDCHAR
STARTCHAR aacute
ENCODING 225
SWIDTH 602 0
DWIDTH 9 0
BBX 8 11 1 0
BITMAP
0C
30
00
78
04
04
7C
84
84
8C
73
ENDCHAR
STARTCHAR acircumflex
ENCODING 226
SWIDTH 602 0
DWIDTH 9 0
BBX 8 11 1 0
BITMAP
18
24
00
78
04
04
7C
84
84
8C
73
ENDCHAR
STARTCHAR atilde
ENCODING 227
SWIDTH 602 0
DWIDTH 9 0
BBX 8 11 1 0
BITMAP
34
58
00
78
04
04
7C
84
84
8C
73
ENDCHAR
STARTCHAR adieresis
ENCODING 228
SWIDTH 602 0
DWIDTH 9 0
BBX 8 11 1 0
BITMAP
28
28
00
78
04
04
7C
84
84
8C
73
ENDCHAR
STARTCHAR aring
ENCODING 229
SWIDTH 602 0
DWIDTH 9 0
BBX 8 11 1 0
BITMAP
10
28
10
78
04
04
7C
84
84
8C
73
ENDCHAR
STARTCHAR ae
ENCODING 230
SWIDTH 602 0
DWIDTH 9 0
BBX 7 8 1 0
BITMAP
EC
12
12
7E
90
90
92
6C
ENDCHAR
STARTCHAR ccedilla
ENCODING 231
SWIDTH 602 0
DWIDTH 9 0
BBX 7 10 1 -2
BITMAP
3C
42
80
80
80
80
42
3C
08
30
ENDCHAR
STARTCHAR egrave
ENCODING 232
SWIDTH 602 0
DWIDTH 9 0
BBX 7 11 1 0
BITMAP
30
0C
00
3C
42
82
FE
80
80
42
3C
ENDCHAR
STARTCHAR eacute
ENCODING 233
SWIDTH 602 0
DWIDTH 9 0
BBX 7 11 1 0
BITMAP
0C
30
00
3C
42
82
FE
80
80
42
3C
ENDCHAR
STARTCHAR ecircumflex
ENCODING 234
SWIDTH 602 0
DWIDTH 9 0
BBX 7 11 1 0
BITMAP
18
24
00
3C
42
82
FE
80
80
42
3C
ENDCHAR
STARTCHAR edieresis
ENCODING 235
SWIDTH 602 0
DWIDTH 9 0
BBX 7 11 1 0
BITMAP
24
24
00
3C
42
82
FE
80
80
42
3C
ENDCHAR
STARTCHAR igrave
ENCODING 236
SWIDTH 602 0
DWIDTH 9 0
BBX 5 11 1 0
BITMAP
60
18
00
F0
10
10
10
10
10
10
10
ENDCHAR
STARTCHAR iacute
ENCODING 237
SWIDTH 602 0
DWIDTH 9 0
BBX 5 11 1 0
BITMAP
18
60
00
F0
10
10
10
10
10
10
10
ENDCHAR
STARTCHAR icircumflex
ENCODING 238
SWIDTH 602 0
DWIDTH 9 0
BBX 5 11 1 0
BITMAP
30
48
00
F0
10
10
10
10
10
10
10
ENDCHAR
STARTCHAR idieresis
ENCODING 239
SWIDTH 602 0
DWIDTH 9 0
BBX 5 11 1 0
BITMAP
48
48
00
F0
10
10
10
10
10
10
10
ENDCHAR
STARTCHAR eth
ENCODING 240
SWIDTH 602 0
DWIDTH 9 0
BBX 7 11 1 0
BITMAP
CC
30
D0
3C
44
82
82
82
82
44
38
ENDCHAR
STARTCHAR ntilde
ENCODING 241
SWIDTH 602 0
DWIDTH 9 0
BBX 7 11 1 0
BITMAP
34
58
00
9C
A6
C2
82
82
82
82
82
ENDCHAR
STARTCHAR ograve
ENCODING 242
SWIDTH 602 0
DWIDTH 9 0
BBX 7 11 1 0
BITMAP
60
18
00
38
44
82
82
82
82
44
38
ENDCHAR
STARTCHAR oacute
ENCODING 243
SWIDTH 602 0
DWIDTH 9 0
BBX 7 11 1 0
BITMAP
0C
30
00
38
44
82
82
82
82
44
38
ENDCHAR
STARTCHAR ocircumflex
ENCODING 244
SWIDTH 602 0
DWIDTH 9 0
BBX 7 11 1 0
BITMAP
18
24
00
38
44
82
82
82
82
44
38
ENDCHAR
STARTCHAR otilde
ENCODING 245
SWIDTH 602 0
DWIDTH 9 0
BBX 7 11 1 0
BITMAP
34
58
00
38
44
82
82
82
82
44
38
ENDCHAR
STARTCHAR odieresis
ENCODING 246
SWIDTH 602 0
DWIDTH 9 0
BBX 7 11 1 0
BITMAP
28
28
00
38
44
82
82
82
82
44
38
ENDCHAR
STARTCHAR divide
ENCODING 247
SWIDTH 602 0
DWIDTH 9 0
BBX 7 7 1 1
BITMAP
10
10
00
FE
00
10
10
ENDCHAR
STARTCHAR oslash
ENCODING 248
SWIDTH 602 0
DWIDTH 9 0
BBX 7 8 1 0
BITMAP
3A
44
8A
92
92
A2
44
B8
ENDCHAR
STARTCHAR ugrave
ENCODING 249
SWIDTH 602 0
DWIDTH 9 0
BBX 7 11 1 0
BITMAP
60
18
00
82
82
82
82
82
86
CA
72
ENDCHAR
STARTCHAR uacute
ENCODING 250
SWIDTH 602 0
DWIDTH 9 0
BBX 7 11 1 0
BITMAP
0C
30
00
82
82
82
82
82
86
CA
72
ENDCHAR
STARTCHAR ucircumflex
ENCODING 251
SWIDTH 602 0
DWIDTH 9 0
BBX 7 11 1 0
BITMAP
18
24
00
82
82
82
82
82
86
CA
72
ENDCHAR
STARTCHAR udieresis
ENCODING 252
SWIDTH 602 0
DWIDTH 9 0
BBX 7 11 1 0
BITMAP
28
28
00
82
82
82
82
82
86
CA
72
ENDCHAR
STARTCHAR yacute
ENCODING 253
SWIDTH 602 0
DWIDTH 9 0
BBX 7 13 1 -2
BITMAP
0C
30
00
82
82
44
44
28
28
10
10
20
60
ENDCHAR
STARTCHAR thorn
ENCODING 254
SWIDTH 602 0
DWIDTH 9 0
BBX 7 13 1 -2
BITMAP
80
80
80
B8
C4
82
82
82
82
84
F8
80
80
ENDCHAR
STARTCHAR ydieresis
ENCODING 255
SWIDTH 602 0
DWIDTH 9 0
BBX 7 13 1 -2
BITMAP
28
28
00
82
82
44
44
28
28
10
10
20
60
ENDCHAR
STARTCHAR Amacron
ENCODING 256
SWIDTH 602 0
DWIDTH 9 0
BBX 7 12 1 0
BITMAP
38
00
10
10
28
28
44
44
FE
82
82
82
ENDCHAR
STARTCHAR amacron
ENCODING 257
SWIDTH 602 0
DWIDTH 9 0
BBX 8 10 1 0
BITMAP
38
00
78
04
04
7C
84
84
8C
73
ENDCHAR
STARTCHAR Abreve
ENCODING 258
SWIDTH 602 0
DWIDTH 9 0
BBX 7 13 1 0
BITMAP
44
38
00
10
10
28
28
44
44
FE
82
82
82
ENDCHAR
STARTCHAR abreve
ENCODING 259
SWIDTH 602 0
DWIDTH 9 0
BBX 8 11 1 0
BITMAP
44
38
00
78
04
04
7C
84
84
8C
73
ENDCHAR
STARTCHAR Aogonek
ENCODING 260
SWIDTH 602 0
DWIDTH 9 0
BBX 7 12 1 -2
BITMAP
10
10
28
28
44
44
FE
82
82
82
10
0C
ENDCHAR
STARTCHAR aogonek
ENCODING 261
SWIDTH 602 0
DWIDTH 9 0
BBX 8 10 1 -2
BITMAP
78
04
04
7C
84
84
8C
73
10
0C
ENDCHAR
STARTCHAR Cacute
ENCODING 262
SWIDTH 602 0
DWIDTH 9 0
BBX 7 13 1 0
BITMAP
0C
30
00
3C
42
80
80
80
80
80
80
42
3C
ENDCHAR
STARTCHAR cacute
ENCODING 263
SWIDTH 602 0
DWIDTH 9 0
BBX 7 11 1 0
BITMAP
0C
30
00
3C
42
80
80
80
80
42
3C
ENDCHAR
STARTCHAR Ccircumflex
ENCODING 264
SWIDTH 602 0
DWIDTH 9 0
BBX 7 13 1 0
BITMAP
18
24
00
3C
42
80
80
80
80
80
80
42
3C
ENDCHAR
STARTCHAR ccircumflex
ENCODING 265
SWIDTH 602 0
DWIDTH 9 0
BBX 7 11 1 0
BITMAP
18
24
00
3C
42
80
80
80
80
42
3C
ENDCHAR
STARTCHAR Cdotaccent
ENCODING 266
SWIDTH 602 0
DWIDTH 9 0
BBX 7 13 1 0
BITMAP
10
10
00
3C
42
80
80
80
80
80
80
42
3C
ENDCHAR
STARTCHAR cdotaccent
ENCODING 267
SWIDTH 602 0
DWIDTH 9 0
BBX 7 11 1 0
BITMAP
10
10
00
3C
42
80
80
80
80
42
3C
ENDCHAR
STARTCHAR Ccaron
ENCODING 268
SWIDTH 602 0
DWIDTH 9 0
BBX 7 13 1 0
BITMAP
24
18
00
3C
42
80
80
80
80
80
80
42
3C
ENDCHAR
STARTCHAR ccaron
ENCODING 269
SWIDTH 602 0
DWIDTH 9 0
BBX 7 11 1 0
BITMAP
24
18
00
3C
42
80
80
80
80
42
3C
ENDCHAR
STARTCHAR Dcaron
ENCODING 270
SWIDTH 602 0
DWIDTH 9 0
BBX 6 13 2 0
BITMAP
48
30
00
F0
88
84
84
84
84
84
84
88
F0
ENDCHAR
STARTCHAR dcaron
ENCODING 271
SWIDTH 602 0
DWIDTH 9 0
BBX 8 14 1 0
BITMAP
09
06
00
02
02
02
3E
42
82
82
82
82
46
3A
ENDCHAR
STARTCHAR Dcroat
ENCODING 272
SWIDTH 602 0
DWIDTH 9 0
BBX 8 10 0 0
BITMAP
3C
22
21
21
F9
21
21
21
22
3C
ENDCHAR
STARTCHAR dcroat
ENCODING 273
SWIDTH 602 0
DWIDTH 9 0
BBX 8 11 1 0
BITMAP
02
1F
02
3E
42
82
82
82
82
46
3A
ENDCHAR
STARTCHAR Emacron
ENCODING 274
SWIDTH 602 0
DWIDTH 9 0
BBX 6 12 2 0
BITMAP
70
00
FC
80
80
80
F8
80
80
80
80
FC
ENDCHAR
STARTCHAR emacron
ENCODING 275
SWIDTH 602 0
DWIDTH 9 0
BBX 7 10 1 0
BITMAP
38
00
3C
42
82
FE
80
80
42
3C
ENDCHAR
STARTCHAR Ebreve
ENCODING 276
SWIDTH 602 0
DWIDTH 9 0
BBX 6 13 2 0
BITMAP
88
70
00
FC
80
80
80
F8
80
80
80
80
FC
ENDCHAR
STARTCHAR ebreve
ENCODING 277
SWIDTH 602 0
DWIDTH 9 0
BBX 7 11 1 0
BITMAP
44
38
00
3C
42
82
FE
80
80
42
3C
ENDCHAR
STARTCHAR Edotaccent
ENCODING 278
SWIDTH 602 0
DWIDTH 9 0
BBX 6 13 2 0
BITMAP
20
20
00
FC
80
80
80
F8
80
80
80
80
FC
ENDCHAR
STARTCHAR edotaccent
ENCODING 279
SWIDTH 602 0
DWIDTH 9 0
BBX 7 11 1 0
BITMAP
10
10
00
3C
42
82
FE
80
80
42
3C
ENDCHAR
STARTCHAR Eogonek
ENCODING 280
SWIDTH 602 0
DWIDTH 9 0
BBX 6 12 2 -2
BITMAP
FC
80
80
80
F8
80
80
80
80
FC
20
18
ENDCHAR
STARTCHAR eogonek
ENCODING 281
SWIDTH 602 0
DWIDTH 9 0
BBX 7 10 1 -2
BITMAP
3C
42
82
FE
80
80
42
3C
10
0C
ENDCHAR
STARTCHAR Ecaron
ENCODING 282
SWIDTH 602 0
DWIDTH 9 0
BBX 6 13 2 0
BITMAP
48
30
00
FC
80
80
80
F8
80
80
80
80
FC
ENDCHAR
STARTCHAR ecaron
ENCODING 283
SWIDTH 602 0
DWIDTH 9 0
BBX 7 11 1 0
BITMAP
24
18
00
3C
42
82
FE
80
80
42
3C
ENDCHAR
STARTCHAR Gcircumflex
ENCODING 284
SWIDTH 602 0
DWIDTH 9 0
BBX 7 13 1 0
BITMAP
18
24
00
3C
42
80
80
80
82
82
82
42
3E
ENDCHAR
STARTCHAR gcircumflex
ENCODING 285
SWIDTH 602 0
DWIDTH 9 0
BBX 7 13 1 -2
BITMAP
18
24
00
3E
42
82
82
82
46
3A
02
84
78
ENDCHAR
STARTCHAR Gbreve
ENCODING 286
SWIDTH 602 0
DWIDTH 9 0
BBX 7 13 1 0
BITMAP
44
38
00
3C
42
80
80
80
82
82
82
42
3E
ENDCHAR
STARTCHAR gbreve
ENCODING 287
SWIDTH 602 0
DWIDTH 9 0
BBX 7 13 1 -2
BITMAP
44
38
00
3E
42
82
82
82
46
3A
02
84
78
ENDCHAR
STARTCHAR Gdotaccent
ENCODING 288
SWIDTH 602 0
DWIDTH 9 0
BBX 7 13 1 0
BITMAP
10
10
00
3C
42
80
80
80
82
82
82
42
3E
ENDCHAR
STARTCHAR gdotaccent
ENCODING 289
SWIDTH 602 0
DWIDTH 9 0
BBX 7 13 1 -2
BITMAP
10
10
00
3E
42
82
82
82
46
3A
02
84
78
ENDCHAR
STARTCHAR Gcommaaccent
ENCODING 290
SWIDTH 602 0
DWIDTH 9 0
BBX 7 15 1 -5
BITMAP
3C
42
80
80
80
82
82
82
42
3E
00
08
08
08
30
ENDCHAR
STARTCHAR gcommaaccent
ENCODING 291
SWIDTH 602 0
DWIDTH 9 0
BBX 7 15 1 -2
BITMAP
0C
10
10
10
00
3E
42
82
82
82
46
3A
02
84
78
ENDCHAR
STARTCHAR Hcircumflex
ENCODING 292
SWIDTH 602 0
DWIDTH 9 0
BBX 7 13 1 0
BITMAP
18
24
00
82
82
82
82
FE
82
82
82
82
82
ENDCHAR
STARTCHAR hcircumflex
ENCODING 293
SWIDTH 602 0
DWIDTH 9 0
BBX 7 14 1 0
BITMAP
60
90
00
80
80
80
9C
A6
C2
82
82
82
82
82
ENDCHAR
STARTCHAR Hbar
ENCODING 294
SWIDTH 602 0
DWIDTH 9 0
BBX 7 10 1 0
BITMAP
82
FE
82
82
FE
82
82
82
82
82
ENDCHAR
STARTCHAR hbar
ENCODING 295
SWIDTH 602 0
DWIDTH 9 0
BBX 7 11 1 0
BITMAP
80
F8
80
9C
A6
C2
82
82
82
82
82
ENDCHAR
STARTCHAR Itilde
ENCODING 296
SWIDTH 602 0
DWIDTH 9 0
BBX 5 13 2 0
BITMAP
68
B0
00
F8
20
20
20
20
20
20
20
20
F8
ENDCHAR
STARTCHAR itilde
ENCODING 297
SWIDTH 602 0
DWIDTH 9 0
BBX 5 11 2 0
BITMAP
68
B0
00
F0
10
10
10
10
10
10
10
ENDCHAR
STARTCHAR Imacron
ENCODING 298
SWIDTH 602 0
DWIDTH 9 0
BBX 5 12 2 0
BITMAP
70
00
F8
20
20
20
20
20
20
20
20
F8
ENDCHAR
STARTCHAR imacron
ENCODING 299
SWIDTH 602 0
DWIDTH 9 0
BBX 4 10 2 0
BITMAP
70
00
F0
10
10
10
10
10
10
10
ENDCHAR
STARTCHAR Ibreve
ENCODING 300
SWIDTH 602 0
DWIDTH 9 0
BBX 5 13 2 0
BITMAP
88
70
00
F8
20
20
20
20
20
20
20
20
F8
ENDCHAR
STARTCHAR ibreve
ENCODING 301
SWIDTH 602 0
DWIDTH 9 0
BBX 5 11 2 0
BITMAP
88
70
00
F0
10
10
10
10
10
10
10
ENDCHAR
STARTCHAR Iogonek
ENCODING 302
SWIDTH 602 0
DWIDTH 9 0
BBX 5 12 2 -2
BITMAP
F8
20
20
20
20
20
20
20
20
F8
20
18
ENDCHAR
STARTCHAR iogonek
ENCODING 303
SWIDTH 602 0
DWIDTH 9 0
BBX 5 13 2 -2
BITMAP
10
10
00
F0
10
10
10
10
10
10
10
20
18
ENDCHAR
STARTCHAR Idotaccent
ENCODING 304
SWIDTH 602 0
DWIDTH 9 0
BBX 5 13 2 0
BITMAP
20
20
00
F8
20
20
20
20
20
20
20
20
F8
ENDCHAR
STARTCHAR dotlessi
ENCODING 305
SWIDTH 602 0
DWIDTH 9 0
BBX 4 8 2 0
BITMAP
F0
10
10
10
10
10
10
10
ENDCHAR
STARTCHAR IJ
ENCODING 306
SWIDTH 602 0
DWIDTH 9 0
BBX 7 10 2 0
BITMAP
FE
22
22
22
22
22
22
22
24
F8
ENDCHAR
STARTCHAR ij
ENCODING 307
SWIDTH 602 0
DWIDTH 9 0
BBX 6 13 2 -2
BITMAP
14
14
00
FC
14
14
14
14
14
14
14
08
70
ENDCHAR
STARTCHAR Jcircumflex
ENCODING 308
SWIDTH 602 0
DWIDTH 9 0
BBX 5 13 1 0
BITMAP
30
48
00
78
08
08
08
08
08
08
08
10
E0
ENDCHAR
STARTCHAR jcircumflex
ENCODING 309
SWIDTH 602 0
DWIDTH 9 0
BBX 5 13 1 -2
BITMAP
30
48
00
78
08
08
08
08
08
08
08
10
E0
ENDCHAR
STARTCHAR Kcommaaccent
ENCODING 310
SWIDTH 602 0
DWIDTH 9 0
BBX 6 15 2 -5
BITMAP
84
88
90
A0
C0
A0
90
88
84
84
00
10
10
10
60
ENDCHAR
STARTCHAR kcommaaccent
ENCODING 311
SWIDTH 602 0
DWIDTH 9 0
BBX 7 16 1 -5
BITMAP
80
80
80
84
88
90
E0
90
88
84
82
00
10
10
10
60
ENDCHAR
STARTCHAR kgreenlandic
ENCODING 312
SWIDTH 602 0
DWIDTH 9 0
BBX 7 8 1 0
BITMAP
84
88
90
E0
90
88
84
82
ENDCHAR
STARTCHAR Lacute
ENCODING 313
SWIDTH 602 0
DWIDTH 9 0
BBX 6 13 2 0
BITMAP
30
C0
00
80
80
80
80
80
80
80
80
80
FC
ENDCHAR
STARTCHAR lacute
ENCODING 314
SWIDTH 602 0
DWIDTH 9 0
BBX 5 14 1 0
BITMAP
18
60
00
F0
10
10
10
10
10
10
10
10
10
10
ENDCHAR
STARTCHAR Lcommaaccent
ENCODING 315
SWIDTH 602 0
DWIDTH 9 0
BBX 6 15 2 -5
BITMAP
80
80
80
80
80
80
80
80
80
FC
00
20
20
20
C0
ENDCHAR
STARTCHAR lcommaaccent
ENCODING 316
SWIDTH 602 0
DWIDTH 9 0
BBX 4 16 1 -5
BITMAP
F0
10
10
10
10
10
10
10
10
10
10
00
10
10
10
60
ENDCHAR
STARTCHAR Lcaron
ENCODING 317
SWIDTH 602 0
DWIDTH 9 0
BBX 7 13 1 0
BITMAP
90
60
00
40
40
40
40
40
40
40
40
40
7E
ENDCHAR
STARTCHAR lcaron
ENCODING 318
SWIDTH 602 0
DWIDTH 9 0
BBX 4 14 1 0
BITMAP
90
60
00
F0
10
10
10
10
10
10
10
10
10
10
ENDCHAR
STARTCHAR Ldot
ENCODING 319
SWIDTH 602 0
DWIDTH 9 0
BBX 6 10 2 0
BITMAP
80
80
80
80
80
88
88
80
80
FC
ENDCHAR
STARTCHAR ldot
ENCODING 320
SWIDTH 602 0
DWIDTH 9 0
BBX 6 11 1 0
BITMAP
F0
10
10
10
10
10
14
14
10
10
10
ENDCHAR
STARTCHAR Lslash
ENCODING 321
SWIDTH 602 0
DWIDTH 9 0
BBX 8 10 0 0
BITMAP
20
20
20
3C
E0
20
20
20
20
3F
ENDCHAR
STARTCHAR lslash
ENCODING 322
SWIDTH 602 0
DWIDTH 9 0
BBX 7 11 1 0
BITMAP
F0
10
10
10
1E
70
10
10
10
10
10
ENDCHAR
STARTCHAR Nacute
ENCODING 323
SWIDTH 602 0
DWIDTH 9 0
BBX 7 13 1 0
BITMAP
0C
30
00
C2
C2
A2
A2
92
92
8A
8A
86
86
ENDCHAR
STARTCHAR nacute
ENCODING 324
SWIDTH 602 0
DWIDTH 9 0
BBX 7 11 1 0
BITMAP
0C
30
00
9C
A6
C2
82
82
82
82
82
ENDCHAR
STARTCHAR Ncommaaccent
ENCODING 325
SWIDTH 602 0
DWIDTH 9 0
BBX 7 15 1 -5
BITMAP
C2
C2
A2
A2
92
92
8A
8A
86
86
00
08
08
08
30
ENDCHAR
STARTCHAR ncommaaccent
ENCODING 326
SWIDTH 602 0
DWIDTH 9 0
BBX 7 13 1 -5
BITMAP
9C
A6
C2
82
82
82
82
82
00
10
10
10
60
ENDCHAR
STARTCHAR Ncaron
ENCODING 327
SWIDTH 602 0
DWIDTH 9 0
BBX 7 13 1 0
BITMAP
48
30
00
C2
C2
A2
A2
92
92
8A
8A
86
86
ENDCHAR
STARTCHAR ncaron
ENCODING 328
SWIDTH 602 0
DWIDTH 9 0
BBX 7 11 1 0
BITMAP
48
30
00
9C
A6
C2
82
82
82
82
82
ENDCHAR
STARTCHAR napostrophe
ENCODING 329
SWIDTH 602 0
DWIDTH 9 0
BBX 9 11 -1 0
BITMAP
2000
2000
2000
E700
2980
3080
2080
2080
2080
2080
2080
ENDCHAR
STARTCHAR Eng
ENCODING 330
SWIDTH 602 0
DWIDTH 9 0
BBX 7 12 1 -2
BITMAP
C2
C2
A2
A2
92
92
8A
8A
86
86
04
38
ENDCHAR
STARTCHAR eng
ENCODING 331
SWIDTH 602 0
DWIDTH 9 0
BBX 7 10 1 -2
BITMAP
9C
A6
C2
82
82
82
82
82
04
38
ENDCHAR
STARTCHAR Omacron
ENCODING 332
SWIDTH 602 0
DWIDTH 9 0
BBX 7 12 1 0
BITMAP
38
00
38
44
82
82
82
82
82
82
44
38
ENDCHAR
STARTCHAR omacron
ENCODING 333
SWIDTH 602 0
DWIDTH 9 0
BBX 7 10 1 0
BITMAP
38
00
38
44
82
82
82
82
44
38
ENDCHAR
STARTCHAR Obreve
ENCODING 334
SWIDTH 602 0
DWIDTH 9 0
BBX 7 13 1 0
BITMAP
44
38
00
38
44
82
82
82
82
82
82
44
38
ENDCHAR
STARTCHAR obreve
ENCODING 335
SWIDTH 602 0
DWIDTH 9 0
BBX 7 11 1 0
BITMAP
44
38
00
38
44
82
82
82
82
44
38
ENDCHAR
STARTCHAR Ohungarumlaut
ENCODING 336
SWIDTH 602 0
DWIDTH 9 0
BBX 7 13 1 0
BITMAP
24
48
00
38
44
82
82
82
82
82
82
44
38
ENDCHAR
STARTCHAR ohungarumlaut
ENCODING 337
SWIDTH 602 0
DWIDTH 9 0
BBX 7 11 1 0
BITMAP
24
48
00
38
44
82
82
82
82
44
38
ENDCHAR
STARTCHAR OE
ENCODING 338
SWIDTH 602 0
DWIDTH 9 0
BBX 8 10 1 0
BITMAP
3F
48
88
88
8F
88
88
88
48
3F
ENDCHAR
STARTCHAR oe
ENCODING 339
SWIDTH 602 0
DWIDTH 9 0
BBX 7 8 1 0
BITMAP
6C
92
92
9E
90
90
9A
6C
ENDCHAR
STARTCHAR Racute
ENCODING 340
SWIDTH 602 0
DWIDTH 9 0
BBX 6 13 2 0
BITMAP
18
60
00
F8
84
84
84
88
F0
88
88
84
84
ENDCHAR
STARTCHAR racute
ENCODING 341
SWIDTH 602 0
DWIDTH 9 0
BBX 6 11 2 0
BITMAP
18
60
00
8C
B4
C0
80
80
80
80
80
ENDCHAR
STARTCHAR Rcommaaccent
ENCODING 342
SWIDTH 602 0
DWIDTH 9 0
BBX 6 15 2 -5
BITMAP
F8
84
84
84
88
F0
88
88
84
84
00
10
10
10
60
ENDCHAR
STARTCHAR rcommaaccent
ENCODING 343
SWIDTH 602 0
DWIDTH 9 0
BBX 7 13 1 -5
BITMAP
46
5A
60
40
40
40
40
40
00
20
20
20
C0
ENDCHAR
STARTCHAR Rcaron
ENCODING 344
SWIDTH 602 0
DWIDTH 9 0
BBX 6 13 2 0
BITMAP
48
30
00
F8
84
84
84
88
F0
88
88
84
84
ENDCHAR
STARTCHAR rcaron
ENCODING 345
SWIDTH 602 0
DWIDTH 9 0
BBX 6 11 2 0
BITMAP
48
30
00
8C
B4
C0
80
80
80
80
80
ENDCHAR
STARTCHAR Sacute
ENCODING 346
SWIDTH 602 0
DWIDTH 9 0
BBX 7 13 1 0
BITMAP
0C
30
00
7C
82
80
80
60
1C
02
02
82
7C
ENDCHAR
STARTCHAR sacute
ENCODING 347
SWIDTH 602 0
DWIDTH 9 0
BBX 7 11 1 0
BITMAP
0C
30
00
7C
82
80
70
0C
02
82
7C
ENDCHAR
STARTCHAR Scircumflex
ENCODING 348
SWIDTH 602 0
DWIDTH 9 0
BBX 7 13 1 0
BITMAP
30
48
00
7C
82
80
80
60
1C
02
02
82
7C
ENDCHAR
STARTCHAR scircumflex
ENCODING 349
SWIDTH 602 0
DWIDTH 9 0
BBX 7 11 1 0
BITMAP
30
48
00
7C
82
80
70
0C
02
82
7C
ENDCHAR
STARTCHAR Scedilla
ENCODING 350
SWIDTH 602 0
DWIDTH 9 0
BBX 7 12 1 -2
BITMAP
7C
82
80
80
60
1C
02
02
82
7C
08
30
ENDCHAR
STARTCHAR scedilla
ENCODING 351
SWIDTH 602 0
DWIDTH 9 0
BBX 7 10 1 -2
BITMAP
7C
82
80
70
0C
02
82
7C
08
30
ENDCHAR
STARTCHAR Scaron
ENCODING 352
SWIDTH 602 0
DWIDTH 9 0
BBX 7 13 1 0
BITMAP
24
18
00
7C
82
80
80
60
1C
02
02
82
7C
ENDCHAR
STARTCHAR scaron
ENCODING 353
SWIDTH 602 0
DWIDTH 9 0
BBX 7 11 1 0
BITMAP
24
18
00
7C
82
80
70
0C
02
82
7C
ENDCHAR
STARTCHAR Tcommaaccent
ENCODING 354
SWIDTH 602 0
DWIDTH 9 0
BBX 7 12 1 -2
BITMAP
FE
10
10
10
10
10
10
10
10
10
10
60
ENDCHAR
STARTCHAR tcommaaccent
ENCODING 355
SWIDTH 602 0
DWIDTH 9 0
BBX 7 12 1 -2
BITMAP
10
10
FE
10
10
10
10
10
10
0E
08
30
ENDCHAR
STARTCHAR Tcaron
ENCODING 356
SWIDTH 602 0
DWIDTH 9 0
BBX 7 13 1 0
BITMAP
24
18
00
FE
10
10
10
10
10
10
10
10
10
ENDCHAR
STARTCHAR tcaron
ENCODING 357
SWIDTH 602 0
DWIDTH 9 0
BBX 7 13 1 0
BITMAP
24
18
00
10
10
FE
10
10
10
10
10
10
0E
ENDCHAR
STARTCHAR Tbar
ENCODING 358
SWIDTH 602 0
DWIDTH 9 0
BBX 7 10 1 0
BITMAP
FE
10
10
10
7C
10
10
10
10
10
ENDCHAR
STARTCHAR tbar
ENCODING 359
SWIDTH 602 0
DWIDTH 9 0
BBX 7 10 1 0
BITMAP
10
10
FE
10
10
7C
10
10
10
0E
ENDCHAR
STARTCHAR Utilde
ENCODING 360
SWIDTH 602 0
DWIDTH 9 0
BBX 7 13 1 0
BITMAP
34
58
00
82
82
82
82
82
82
82
82
44
38
ENDCHAR
STARTCHAR utilde
ENCODING 361
SWIDTH 602 0
DWIDTH 9 0
BBX 7 11 1 0
BITMAP
34
58
00
82
82
82
82
82
86
CA
72
ENDCHAR
STARTCHAR Umacron
ENCODING 362
SWIDTH 602 0
DWIDTH 9 0
BBX 7 12 1 0
BITMAP
38
00
82
82
82
82
82
82
82
82
44
38
ENDCHAR
STARTCHAR umacron
ENCODING 363
SWIDTH 602 0
DWIDTH 9 0
BBX 7 10 1 0
BITMAP
38
00
82
82
82
82
82
86
CA
72
ENDCHAR
STARTCHAR Ubreve
ENCODING 364
SWIDTH 602 0
DWIDTH 9 0
BBX 7 13 1 0
BITMAP
44
38
00
82
82
82
82
82
82
82
82
44
38
ENDCHAR
STARTCHAR ubreve
ENCODING 365
SWIDTH 602 0
DWIDTH 9 0
BBX 7 11 1 0
BITMAP
44
38
00
82
82
82
82
82
86
CA
72
ENDCHAR
STARTCHAR Uring
ENCODING 366
SWIDTH 602 0
DWIDTH 9 0
BBX 7 14 1 0
BITMAP
10
28
10
00
82
82
82
82
82
82
82
82
44
38
ENDCHAR
STARTCHAR uring
ENCODING 367
SWIDTH 602 0
DWIDTH 9 0
BBX 7 12 1 0
BITMAP
10
28
10
00
82
82
82
82
82
86
CA
72
ENDCHAR
STARTCHAR Uhungarumlaut
ENCODING 368
SWIDTH 602 0
DWIDTH 9 0
BBX 7 13 1 0
BITMAP
24
48
00
82
82
82
82
82
82
82
82
44
38
ENDCHAR
STARTCHAR uhungarumlaut
ENCODING 369
SWIDTH 602 0
DWIDTH 9 0
BBX 7 11 1 0
BITMAP
24
48
00
82
82
82
82
82
86
CA
72
ENDCHAR
STARTCHAR Uogonek
ENCODING 370
SWIDTH 602 0
DWIDTH 9 0
BBX 7 12 1 -2
BITMAP
82
82
82
82
82
82
82
82
44
38
10
0C
ENDCHAR
STARTCHAR uogonek
ENCODING 371
SWIDTH 602 0
DWIDTH 9 0
BBX 7 10 1 -2
BITMAP
82
82
82
82
82
86
CA
72
10
0C
ENDCHAR
STARTCHAR Wcircumflex
ENCODING 372
SWIDTH 602 0
DWIDTH 9 0
BBX 7 13 1 0
BITMAP
18
24
00
82
92
92
AA
AA
AA
44
44
44
44
ENDCHAR
STARTCHAR wcircumflex
ENCODING 373
SWIDTH 602 0
DWIDTH 9 0
BBX 7 11 1 0
BITMAP
18
24
00
82
92
92
AA
AA
44
44
44
ENDCHAR
STARTCHAR Ycircumflex
ENCODING 374
SWIDTH 602 0
DWIDTH 9 0
BBX 7 13 1 0
BITMAP
18
24
00
82
82
44
44
38
10
10
10
10
10
ENDCHAR
STARTCHAR ycircumflex
ENCODING 375
SWIDTH 602 0
DWIDTH 9 0
BBX 7 13 1 -2
BITMAP
18
24
00
82
82
44
44
28
28
10
10
20
60
ENDCHAR
STARTCHAR Ydieresis
ENCODING 376
SWIDTH 602 0
DWIDTH 9 0
BBX 7 13 1 0
BITMAP
44
44
00
82
82
44
44
28
10
10
10
10
10
ENDCHAR
STARTCHAR Zacute
ENCODING 377
SWIDTH 602 0
DWIDTH 9 0
BBX 7 13 1 0
BITMAP
06
18
00
FE
02
04
08
10
20
40
80
80
FE
ENDCHAR
STARTCHAR zacute
ENCODING 378
SWIDTH 602 0
DWIDTH 9 0
BBX 7 11 1 0
BITMAP
0C
30
00
FE
04
08
10
20
40
80
FE
ENDCHAR
STARTCHAR Zdotaccent
ENCODING 379
SWIDTH 602 0
DWIDTH 9 0
BBX 7 13 1 0
BITMAP
10
10
00
FE
02
04
08
10
20
40
80
80
FE
ENDCHAR
STARTCHAR zdotaccent
ENCODING 380
SWIDTH 602 0
DWIDTH 9 0
BBX 7 11 1 0
BITMAP
10
10
00
FE
04
08
10
20
40
80
FE
ENDCHAR
STARTCHAR Zcaron
ENCODING 381
SWIDTH 602 0
DWIDTH 9 0
BBX 7 13 1 0
BITMAP
24
18
00
FE
02
04
08
10
20
40
80
80
FE
ENDCHAR
STARTCHAR zcaron
ENCODING 382
SWIDTH 602 0
DWIDTH 9 0
BBX 7 11 1 0
BITMAP
24
18
00
FE
04
08
10
20
40
80
FE
ENDCHAR
STARTCHAR uni0186
ENCODING 390
SWIDTH 602 0
DWIDTH 9 0
BBX 7 10 1 0
BITMAP
78
84
02
02
02
02
02
02
84
78
ENDCHAR
STARTCHAR uni0189
ENCODING 393
SWIDTH 602 0
DWIDTH 9 0
BBX 8 10 0 0
BITMAP
3C
22
21
21
F9
21
21
21
22
3C
ENDCHAR
STARTCHAR uni018E
ENCODING 398
SWIDTH 602 0
DWIDTH 9 0
BBX 6 10 2 0
BITMAP
FC
04
04
04
04
7C
04
04
04
FC
ENDCHAR
STARTCHAR florin
ENCODING 402
SWIDTH 602 0
DWIDTH 9 0
BBX 7 11 1 -1
BITMAP
1C
22
20
20
FC
40
40
40
80
80
80
ENDCHAR
STARTCHAR uni0197
ENCODING 407
SWIDTH 602 0
DWIDTH 9 0
BBX 5 10 2 0
BITMAP
F8
20
20
20
F8
20
20
20
20
F8
ENDCHAR
STARTCHAR uni019A
ENCODING 410
SWIDTH 602 0
DWIDTH 9 0
BBX 5 11 1 0
BITMAP
F0
10
10
10
10
F8
10
10
10
10
10
ENDCHAR
STARTCHAR uni019D
ENCODING 413
SWIDTH 602 0
DWIDTH 9 0
BBX 11 12 -3 -2
BITMAP
0C20
0C20
0A20
0A20
0920
0920
08A0
08A0
0860
0860
1000
E000
ENDCHAR
STARTCHAR uni019F
ENCODING 415
SWIDTH 602 0
DWIDTH 9 0
BBX 7 10 1 0
BITMAP
38
44
82
82
FE
82
82
82
44
38
ENDCHAR
STARTCHAR Ohorn
ENCODING 416
SWIDTH 602 0
DWIDTH 9 0
BBX 10 10 1 0
BITMAP
3840
4440
8240
8380
8200
8200
8200
8200
4400
3800
ENDCHAR
STARTCHAR ohorn
ENCODING 417
SWIDTH 602 0
DWIDTH 9 0
BBX 10 8 1 0
BITMAP
3840
4440
8240
8380
8200
8200
4400
3800
ENDCHAR
STARTCHAR uni01A7
ENCODING 423
SWIDTH 602 0
DWIDTH 9 0
BBX 7 10 1 0
BITMAP
7C
82
02
02
0C
70
80
80
82
7C
ENDCHAR
STARTCHAR uni01A8
ENCODING 424
SWIDTH 602 0
DWIDTH 9 0
BBX 7 8 1 0
BITMAP
7C
82
02
1C
60
80
82
7C
ENDCHAR
STARTCHAR uni01AE
ENCODING 430
SWIDTH 602 0
DWIDTH 9 0
BBX 8 12 1 -2
BITMAP
FE
10
10
10
10
10
10
10
10
10
08
07
ENDCHAR
STARTCHAR Uhorn
ENCODING 431
SWIDTH 602 0
DWIDTH 9 0
BBX 10 10 1 0
BITMAP
8240
8240
8240
8380
8200
8200
8200
8200
4400
3800
ENDCHAR
STARTCHAR uhorn
ENCODING 432
SWIDTH 602 0
DWIDTH 9 0
BBX 10 8 1 0
BITMAP
8240
8240
8240
8380
8200
8600
CA00
7200
ENDCHAR
STARTCHAR uni01B5
ENCODING 437
SWIDTH 602 0
DWIDTH 9 0
BBX 7 10 1 0
BITMAP
FE
02
04
08
7C
20
40
80
80
FE
ENDCHAR
STARTCHAR uni01B6
ENCODING 438
SWIDTH 602 0
DWIDTH 9 0
BBX 7 8 1 0
BITMAP
FE
04
08
7C
20
40
80
FE
ENDCHAR
STARTCHAR uni01BB
ENCODING 443
SWIDTH 602 0
DWIDTH 9 0
BBX 5 10 2 0
BITMAP
70
88
08
08
F8
20
40
80
80
F8
ENDCHAR
STARTCHAR uni01BC
ENCODING 444
SWIDTH 602 0
DWIDTH 9 0
BBX 6 10 1 0
BITMAP
7C
40
40
40
78
04
04
04
88
70
ENDCHAR
STARTCHAR uni01C0
ENCODING 448
SWIDTH 602 0
DWIDTH 9 0
BBX 1 12 4 -1
BITMAP
80
80
80
80
80
80
80
80
80
80
80
80
ENDCHAR
STARTCHAR uni01C2
ENCODING 450
SWIDTH 602 0
DWIDTH 9 0
BBX 7 12 1 -1
BITMAP
10
10
10
10
10
FE
10
FE
10
10
10
10
ENDCHAR
STARTCHAR uni01C3
ENCODING 451
SWIDTH 602 0
DWIDTH 9 0
BBX 1 10 4 0
BITMAP
80
80
80
80
80
80
80
00
80
80
ENDCHAR
STARTCHAR uni01CD
ENCODING 461
SWIDTH 602 0
DWIDTH 9 0
BBX 7 13 1 0
BITMAP
24
18
00
10
10
28
28
44
44
FE
82
82
82
ENDCHAR
STARTCHAR uni01CE
ENCODING 462
SWIDTH 602 0
DWIDTH 9 0
BBX 8 11 1 0
BITMAP
24
18
00
78
04
04
7C
84
84
8C
73
ENDCHAR
STARTCHAR uni01CF
ENCODING 463
SWIDTH 602 0
DWIDTH 9 0
BBX 5 13 2 0
BITMAP
48
30
00
F8
20
20
20
20
20
20
20
20
F8
ENDCHAR
STARTCHAR uni01D0
ENCODING 464
SWIDTH 602 0
DWIDTH 9 0
BBX 4 11 2 0
BITMAP
90
60
00
F0
10
10
10
10
10
10
10
ENDCHAR
STARTCHAR uni01D1
ENCODING 465
SWIDTH 602 0
DWIDTH 9 0
BBX 7 13 1 0
BITMAP
24
18
00
38
44
82
82
82
82
82
82
44
38
ENDCHAR
STARTCHAR uni01D2
ENCODING 466
SWIDTH 602 0
DWIDTH 9 0
BBX 7 11 1 0
BITMAP
24
18
00
38
44
82
82
82
82
44
38
ENDCHAR
STARTCHAR uni01D3
ENCODING 467
SWIDTH 602 0
DWIDTH 9 0
BBX 7 13 1 0
BITMAP
24
18
00
82
82
82
82
82
82
82
82
44
38
ENDCHAR
STARTCHAR uni01D4
ENCODING 468
SWIDTH 602 0
DWIDTH 9 0
BBX 7 11 1 0
BITMAP
24
18
00
82
82
82
82
82
86
CA
72
ENDCHAR
STARTCHAR uni01D5
ENCODING 469
SWIDTH 602 0
DWIDTH 9 0
BBX 7 15 1 0
BITMAP
38
00
44
44
00
82
82
82
82
82
82
82
82
44
38
ENDCHAR
STARTCHAR uni01D6
ENCODING 470
SWIDTH 602 0
DWIDTH 9 0
BBX 7 13 1 0
BITMAP
38
00
28
28
00
82
82
82
82
82
86
CA
72
ENDCHAR
STARTCHAR uni01D7
ENCODING 471
SWIDTH 602 0
DWIDTH 9 0
BBX 7 16 1 0
BITMAP
0C
30
00
44
44
00
82
82
82
82
82
82
82
82
44
38
ENDCHAR
STARTCHAR uni01D8
ENCODING 472
SWIDTH 602 0
DWIDTH 9 0
BBX 7 14 1 0
BITMAP
0C
30
00
28
28
00
82
82
82
82
82
86
CA
72
ENDCHAR
STARTCHAR uni01D9
ENCODING 473
SWIDTH 602 0
DWIDTH 9 0
BBX 7 16 1 0
BITMAP
24
18
00
44
44
00
82
82
82
82
82
82
82
82
44
38
ENDCHAR
STARTCHAR uni01DA
ENCODING 474
SWIDTH 602 0
DWIDTH 9 0
BBX 7 14 1 0
BITMAP
24
18
00
28
28
00
82
82
82
82
82
86
CA
72
ENDCHAR
STARTCHAR uni01DB
ENCODING 475
SWIDTH 602 0
DWIDTH 9 0
BBX 7 16 1 0
BITMAP
60
18
00
44
44
00
82
82
82
82
82
82
82
82
44
38
ENDCHAR
STARTCHAR uni01DC
ENCODING 476
SWIDTH 602 0
DWIDTH 9 0
BBX 7 14 1 0
BITMAP
60
18
00
28
28
00
82
82
82
82
82
86
CA
72
ENDCHAR
STARTCHAR uni01DD
ENCODING 477
SWIDTH 602 0
DWIDTH 9 0
BBX 7 8 1 0
BITMAP
78
84
02
02
FE
82
84
78
ENDCHAR
STARTCHAR uni01DE
ENCODING 478
SWIDTH 602 0
DWIDTH 9 0
BBX 7 15 1 0
BITMAP
38
00
44
44
00
10
10
28
28
44
44
FE
82
82
82
ENDCHAR
STARTCHAR uni01DF
ENCODING 479
SWIDTH 602 0
DWIDTH 9 0
BBX 8 13 1 0
BITMAP
38
00
28
28
00
78
04
04
7C
84
84
8C
73
ENDCHAR
STARTCHAR uni01E0
ENCODING 480
SWIDTH 602 0
DWIDTH 9 0
BBX 7 15 1 0
BITMAP
38
00
10
10
00
10
10
28
28
44
44
FE
82
82
82
ENDCHAR
STARTCHAR uni01E1
ENCODING 481
SWIDTH 602 0
DWIDTH 9 0
BBX 8 13 1 0
BITMAP
38
00
10
10
00
78
04
04
7C
84
84
8C
73
ENDCHAR
STARTCHAR uni01E2
ENCODING 482
SWIDTH 602 0
DWIDTH 9 0
BBX 8 12 1 0
BITMAP
1C
00
1F
18
28
28
4E
48
78
88
88
8F
ENDCHAR
STARTCHAR uni01E3
ENCODING 483
SWIDTH 602 0
DWIDTH 9 0
BBX 7 10 1 0
BITMAP
38
00
EC
12
12
7E
90
90
92
6C
ENDCHAR
STARTCHAR uni01E4
ENCODING 484
SWIDTH 602 0
DWIDTH 9 0
BBX 8 10 1 0
BITMAP
3C
42
80
80
80
82
9F
82
42
3E
ENDCHAR
STARTCHAR uni01E5
ENCODING 485
SWIDTH 602 0
DWIDTH 9 0
BBX 7 10 1 -2
BITMAP
3E
42
82
82
82
46
3A
FE
84
78
ENDCHAR
STARTCHAR Gcaron
ENCODING 486
SWIDTH 602 0
DWIDTH 9 0
BBX 7 13 1 0
BITMAP
24
18
00
3C
42
80
80
80
82
82
82
42
3E
ENDCHAR
STARTCHAR gcaron
ENCODING 487
SWIDTH 602 0
DWIDTH 9 0
BBX 7 13 1 -2
BITMAP
24
18
00
3E
42
82
82
82
46
3A
02
84
78
ENDCHAR
STARTCHAR uni01E8
ENCODING 488
SWIDTH 602 0
DWIDTH 9 0
BBX 6 13 2 0
BITMAP
48
30
00
84
88
90
A0
C0
A0
90
88
84
84
ENDCHAR
STARTCHAR uni01E9
ENCODING 489
SWIDTH 602 0
DWIDTH 9 0
BBX 7 14 1 0
BITMAP
90
60
00
80
80
80
84
88
90
E0
90
88
84
82
ENDCHAR
STARTCHAR uni01EA
ENCODING 490
SWIDTH 602 0
DWIDTH 9 0
BBX 7 12 1 -2
BITMAP
38
44
82
82
82
82
82
82
44
38
10
0C
ENDCHAR
STARTCHAR uni01EB
ENCODING 491
SWIDTH 602 0
DWIDTH 9 0
BBX 7 10 1 -2
BITMAP
38
44
82
82
82
82
44
38
10
0C
ENDCHAR
STARTCHAR uni01EC
ENCODING 492
SWIDTH 602 0
DWIDTH 9 0
BBX 7 14 1 -2
BITMAP
38
00
38
44
82
82
82
82
82
82
44
38
10
0C
ENDCHAR
STARTCHAR uni01ED
ENCODING 493
SWIDTH 602 0
DWIDTH 9 0
BBX 7 12 1 -2
BITMAP
38
00
38
44
82
82
82
82
44
38
10
0C
ENDCHAR
STARTCHAR uni01F0
ENCODING 496
SWIDTH 602 0
DWIDTH 9 0
BBX 5 13 1 -2
BITMAP
48
30
00
78
08
08
08
08
08
08
08
10
E0
ENDCHAR
STARTCHAR uni01F4
ENCODING 500
SWIDTH 602 0
DWIDTH 9 0
BBX 7 13 1 0
BITMAP
0C
30
00
3C
42
80
80
80
82
82
82
42
3E
ENDCHAR
STARTCHAR uni01F5
ENCODING 501
SWIDTH 602 0
DWIDTH 9 0
BBX 7 13 1 -2
BITMAP
06
18
00
3E
42
82
82
82
46
3A
02
84
78
ENDCHAR
STARTCHAR uni01F8
ENCODING 504
SWIDTH 602 0
DWIDTH 9 0
BBX 7 13 1 0
BITMAP
C0
30
00
C2
C2
A2
A2
92
92
8A
8A
86
86
ENDCHAR
STARTCHAR uni01F9
ENCODING 505
SWIDTH 602 0
DWIDTH 9 0
BBX 7 11 1 0
BITMAP
60
18
00
9C
A6
C2
82
82
82
82
82
ENDCHAR
STARTCHAR Aringacute
ENCODING 506
SWIDTH 602 0
DWIDTH 9 0
BBX 7 15 1 0
BITMAP
0C
30
00
10
28
10
10
28
28
44
44
FE
82
82
82
ENDCHAR
STARTCHAR aringacute
ENCODING 507
SWIDTH 602 0
DWIDTH 9 0
BBX 8 14 1 0
BITMAP
0C
30
00
10
28
10
78
04
04
7C
84
84
8C
73
ENDCHAR
STARTCHAR AEacute
ENCODING 508
SWIDTH 602 0
DWIDTH 9 0
BBX 8 13 1 0
BITMAP
06
18
00
1F
18
28
28
4E
48
78
88
88
8F
ENDCHAR
STARTCHAR aeacute
ENCODING 509
SWIDTH 602 0
DWIDTH 9 0
BBX 7 11 1 0
BITMAP
0C
30
00
EC
12
12
7E
90
90
92
6C
ENDCHAR
STARTCHAR Oslashacute
ENCODING 510
SWIDTH 602 0
DWIDTH 9 0
BBX 7 13 1 0
BITMAP
0C
30
00
3A
44
8A
8A
92
92
A2
A2
44
B8
ENDCHAR
STARTCHAR oslashacute
ENCODING 511
SWIDTH 602 0
DWIDTH 9 0
BBX 7 11 1 0
BITMAP
0C
30
00
3A
44
8A
92
92
A2
44
B8
ENDCHAR
STARTCHAR uni0200
ENCODING 512
SWIDTH 602 0
DWIDTH 9 0
BBX 7 13 1 0
BITMAP
48
24
00
10
10
28
28
44
44
FE
82
82
82
ENDCHAR
STARTCHAR uni0201
ENCODING 513
SWIDTH 602 0
DWIDTH 9 0
BBX 8 11 1 0
BITMAP
48
24
00
78
04
04
7C
84
84
8C
73
ENDCHAR
STARTCHAR uni0202
ENCODING 514
SWIDTH 602 0
DWIDTH 9 0
BBX 7 13 1 0
BITMAP
38
44
00
10
10
28
28
44
44
FE
82
82
82
ENDCHAR
STARTCHAR uni0203
ENCODING 515
SWIDTH 602 0
DWIDTH 9 0
BBX 8 11 1 0
BITMAP
38
44
00
78
04
04
7C
84
84
8C
73
ENDCHAR
STARTCHAR uni0204
ENCODING 516
SWIDTH 602 0
DWIDTH 9 0
BBX 6 13 2 0
BITMAP
90
48
00
FC
80
80
80
F8
80
80
80
80
FC
ENDCHAR
STARTCHAR uni0205
ENCODING 517
SWIDTH 602 0
DWIDTH 9 0
BBX 7 11 1 0
BITMAP
48
24
00
3C
42
82
FE
80
80
42
3C
ENDCHAR
STARTCHAR uni0206
ENCODING 518
SWIDTH 602 0
DWIDTH 9 0
BBX 6 13 2 0
BITMAP
70
88
00
FC
80
80
80
F8
80
80
80
80
FC
ENDCHAR
STARTCHAR uni0207
ENCODING 519
SWIDTH 602 0
DWIDTH 9 0
BBX 7 11 1 0
BITMAP
38
44
00
3C
42
82
FE
80
80
42
3C
ENDCHAR
STARTCHAR uni0208
ENCODING 520
SWIDTH 602 0
DWIDTH 9 0
BBX 5 13 2 0
BITMAP
90
48
00
F8
20
20
20
20
20
20
20
20
F8
ENDCHAR
STARTCHAR uni0209
ENCODING 521
SWIDTH 602 0
DWIDTH 9 0
BBX 5 11 2 0
BITMAP
90
48
00
F0
10
10
10
10
10
10
10
ENDCHAR
STARTCHAR uni020A
ENCODING 522
SWIDTH 602 0
DWIDTH 9 0
BBX 5 13 2 0
BITMAP
70
88
00
F8
20
20
20
20
20
20
20
20
F8
ENDCHAR
STARTCHAR uni020B
ENCODING 523
SWIDTH 602 0
DWIDTH 9 0
BBX 5 11 2 0
BITMAP
70
88
00
F0
10
10
10
10
10
10
10
ENDCHAR
STARTCHAR uni020C
ENCODING 524
SWIDTH 602 0
DWIDTH 9 0
BBX 7 13 1 0
BITMAP
48
24
00
38
44
82
82
82
82
82
82
44
38
ENDCHAR
STARTCHAR uni020D
ENCODING 525
SWIDTH 602 0
DWIDTH 9 0
BBX 7 11 1 0
BITMAP
48
24
00
38
44
82
82
82
82
44
38
ENDCHAR
STARTCHAR uni020E
ENCODING 526
SWIDTH 602 0
DWIDTH 9 0
BBX 7 13 1 0
BITMAP
38
44
00
38
44
82
82
82
82
82
82
44
38
ENDCHAR
STARTCHAR uni020F
ENCODING 527
SWIDTH 602 0
DWIDTH 9 0
BBX 7 11 1 0
BITMAP
38
44
00
38
44
82
82
82
82
44
38
ENDCHAR
STARTCHAR uni0210
ENCODING 528
SWIDTH 602 0
DWIDTH 9 0
BBX 6 13 2 0
BITMAP
90
48
00
F8
84
84
84
88
F0
88
88
84
84
ENDCHAR
STARTCHAR uni0211
ENCODING 529
SWIDTH 602 0
DWIDTH 9 0
BBX 6 11 2 0
BITMAP
90
48
00
8C
B4
C0
80
80
80
80
80
ENDCHAR
STARTCHAR uni0212
ENCODING 530
SWIDTH 602 0
DWIDTH 9 0
BBX 6 13 2 0
BITMAP
70
88
00
F8
84
84
84
88
F0
88
88
84
84
ENDCHAR
STARTCHAR uni0213
ENCODING 531
SWIDTH 602 0
DWIDTH 9 0
BBX 6 11 2 0
BITMAP
70
88
00
8C
B4
C0
80
80
80
80
80
ENDCHAR
STARTCHAR uni0214
ENCODING 532
SWIDTH 602 0
DWIDTH 9 0
BBX 7 13 1 0
BITMAP
48
24
00
82
82
82
82
82
82
82
82
44
38
ENDCHAR
STARTCHAR uni0215
ENCODING 533
SWIDTH 602 0
DWIDTH 9 0
BBX 7 11 1 0
BITMAP
48
24
00
82
82
82
82
82
86
CA
72
ENDCHAR
STARTCHAR uni0216
ENCODING 534
SWIDTH 602 0
DWIDTH 9 0
BBX 7 13 1 0
BITMAP
38
44
00
82
82
82
82
82
82
82
82
44
38
ENDCHAR
STARTCHAR uni0217
ENCODING 535
SWIDTH 602 0
DWIDTH 9 0
BBX 7 11 1 0
BITMAP
38
44
00
82
82
82
82
82
86
CA
72
ENDCHAR
STARTCHAR Scommaaccent
ENCODING 536
SWIDTH 602 0
DWIDTH 9 0
BBX 7 15 1 -5
BITMAP
7C
82
80
80
60
1C
02
02
82
7C
00
08
08
08
30
ENDCHAR
STARTCHAR scommaaccent
ENCODING 537
SWIDTH 602 0
DWIDTH 9 0
BBX 7 13 1 -5
BITMAP
7C
82
80
70
0C
02
82
7C
00
08
08
08
30
ENDCHAR
STARTCHAR Tcommaaccent
ENCODING 538
SWIDTH 602 0
DWIDTH 9 0
BBX 7 15 1 -5
BITMAP
FE
10
10
10
10
10
10
10
10
10
00
10
10
10
60
ENDCHAR
STARTCHAR tcommaaccent
ENCODING 539
SWIDTH 602 0
DWIDTH 9 0
BBX 7 15 1 -5
BITMAP
10
10
FE
10
10
10
10
10
10
0E
00
08
08
08
30
ENDCHAR
STARTCHAR uni021E
ENCODING 542
SWIDTH 602 0
DWIDTH 9 0
BBX 7 13 1 0
BITMAP
24
18
00
82
82
82
82
FE
82
82
82
82
82
ENDCHAR
STARTCHAR uni021F
ENCODING 543
SWIDTH 602 0
DWIDTH 9 0
BBX 7 14 1 0
BITMAP
90
60
00
80
80
80
9C
A6
C2
82
82
82
82
82
ENDCHAR
STARTCHAR uni0226
ENCODING 550
SWIDTH 602 0
DWIDTH 9 0
BBX 7 13 1 0
BITMAP
10
10
00
10
10
28
28
44
44
FE
82
82
82
ENDCHAR
STARTCHAR uni0227
ENCODING 551
SWIDTH 602 0
DWIDTH 9 0
BBX 8 11 1 0
BITMAP
10
10
00
78
04
04
7C
84
84
8C
73
ENDCHAR
STARTCHAR uni0228
ENCODING 552
SWIDTH 602 0
DWIDTH 9 0
BBX 6 12 2 -2
BITMAP
FC
80
80
80
F8
80
80
80
80
FC
20
C0
ENDCHAR
STARTCHAR uni0229
ENCODING 553
SWIDTH 602 0
DWIDTH 9 0
BBX 7 10 1 -2
BITMAP
3C
42
82
FE
80
80
42
3C
10
60
ENDCHAR
STARTCHAR uni022A
ENCODING 554
SWIDTH 602 0
DWIDTH 9 0
BBX 7 15 1 0
BITMAP
38
00
44
44
00
38
44
82
82
82
82
82
82
44
38
ENDCHAR
STARTCHAR uni022B
ENCODING 555
SWIDTH 602 0
DWIDTH 9 0
BBX 7 13 1 0
BITMAP
38
00
28
28
00
38
44
82
82
82
82
44
38
ENDCHAR
STARTCHAR uni022C
ENCODING 556
SWIDTH 602 0
DWIDTH 9 0
BBX 7 15 1 0
BITMAP
38
00
34
58
00
38
44
82
82
82
82
82
82
44
38
ENDCHAR
STARTCHAR uni022D
ENCODING 557
SWIDTH 602 0
DWIDTH 9 0
BBX 7 13 1 0
BITMAP
38
00
34
58
00
38
44
82
82
82
82
44
38
ENDCHAR
STARTCHAR uni022E
ENCODING 558
SWIDTH 602 0
DWIDTH 9 0
BBX 7 13 1 0
BITMAP
10
10
00
38
44
82
82
82
82
82
82
44
38
ENDCHAR
STARTCHAR uni022F
ENCODING 559
SWIDTH 602 0
DWIDTH 9 0
BBX 7 11 1 0
BITMAP
10
10
00
38
44
82
82
82
82
44
38
ENDCHAR
STARTCHAR uni0230
ENCODING 560
SWIDTH 602 0
DWIDTH 9 0
BBX 7 15 1 0
BITMAP
38
00
10
10
00
38
44
82
82
82
82
82
82
44
38
ENDCHAR
STARTCHAR uni0231
ENCODING 561
SWIDTH 602 0
DWIDTH 9 0
BBX 7 13 1 0
BITMAP
38
00
10
10
00
38
44
82
82
82
82
44
38
ENDCHAR
STARTCHAR uni0232
ENCODING 562
SWIDTH 602 0
DWIDTH 9 0
BBX 7 12 1 0
BITMAP
38
00
82
82
44
44
38
10
10
10
10
10
ENDCHAR
STARTCHAR uni0233
ENCODING 563
SWIDTH 602 0
DWIDTH 9 0
BBX 7 12 1 -2
BITMAP
38
00
82
82
44
44
28
28
10
10
20
60
ENDCHAR
STARTCHAR uni0250
ENCODING 592
SWIDTH 602 0
DWIDTH 9 0
BBX 8 8 1 0
BITMAP
CE
31
21
21
3E
20
20
1E
ENDCHAR
STARTCHAR uni0254
ENCODING 596
SWIDTH 602 0
DWIDTH 9 0
BBX 7 8 1 0
BITMAP
78
84
02
02
02
02
84
78
ENDCHAR
STARTCHAR uni0258
ENCODING 600
SWIDTH 602 0
DWIDTH 9 0
BBX 7 8 1 0
BITMAP
78
84
82
FE
02
02
84
78
ENDCHAR
STARTCHAR uni0259
ENCODING 601
SWIDTH 602 0
DWIDTH 9 0
BBX 7 8 1 0
BITMAP
78
84
02
02
FE
82
84
78
ENDCHAR
STARTCHAR uni025F
ENCODING 607
SWIDTH 602 0
DWIDTH 9 0
BBX 7 11 1 -3
BITMAP
08
08
08
08
08
08
FE
08
08
08
F0
ENDCHAR
STARTCHAR uni0265
ENCODING 613
SWIDTH 602 0
DWIDTH 9 0
BBX 7 11 1 -3
BITMAP
82
82
82
82
82
86
CA
72
02
02
02
ENDCHAR
STARTCHAR uni0275
ENCODING 629
SWIDTH 602 0
DWIDTH 9 0
BBX 7 8 1 0
BITMAP
38
44
82
FE
82
82
44
38
ENDCHAR
STARTCHAR uni0279
ENCODING 633
SWIDTH 602 0
DWIDTH 9 0
BBX 6 8 2 0
BITMAP
04
04
04
04
04
0C
B4
C4
ENDCHAR
STARTCHAR uni0287
ENCODING 647
SWIDTH 602 0
DWIDTH 9 0
BBX 7 10 1 0
BITMAP
E0
10
10
10
10
10
10
FE
10
10
ENDCHAR
STARTCHAR uni0288
ENCODING 648
SWIDTH 602 0
DWIDTH 9 0
BBX 8 12 1 -2
BITMAP
10
10
FE
10
10
10
10
10
10
10
08
07
ENDCHAR
STARTCHAR uni0289
ENCODING 649
SWIDTH 602 0
DWIDTH 9 0
BBX 7 8 1 0
BITMAP
82
82
82
FE
82
86
CA
72
ENDCHAR
STARTCHAR uni028C
ENCODING 652
SWIDTH 602 0
DWIDTH 9 0
BBX 7 8 1 0
BITMAP
10
10
28
28
44
44
82
82
ENDCHAR
STARTCHAR uni028D
ENCODING 653
SWIDTH 602 0
DWIDTH 9 0
BBX 7 8 1 0
BITMAP
44
44
44
AA
AA
92
92
82
ENDCHAR
STARTCHAR uni028E
ENCODING 654
SWIDTH 602 0
DWIDTH 9 0
BBX 7 10 1 0
BITMAP
0C
08
10
10
28
28
44
44
82
82
ENDCHAR
STARTCHAR uni029E
ENCODING 670
SWIDTH 602 0
DWIDTH 9 0
BBX 7 11 1 -3
BITMAP
82
42
22
12
0E
12
22
42
02
02
02
ENDCHAR
STARTCHAR uni02BB
ENCODING 699
SWIDTH 602 0
DWIDTH 9 0
BBX 3 4 3 7
BITMAP
60
80
80
80
ENDCHAR
STARTCHAR afii57929
ENCODING 700
SWIDTH 602 0
DWIDTH 9 0
BBX 3 4 2 7
BITMAP
20
20
20
C0
ENDCHAR
STARTCHAR afii64937
ENCODING 701
SWIDTH 602 0
DWIDTH 9 0
BBX 3 4 2 7
BITMAP
80
80
80
60
ENDCHAR
STARTCHAR circumflex
ENCODING 710
SWIDTH 602 0
DWIDTH 9 0
BBX 4 2 3 9
BITMAP
60
90
ENDCHAR
STARTCHAR caron
ENCODING 711
SWIDTH 602 0
DWIDTH 9 0
BBX 4 2 3 9
BITMAP
90
60
ENDCHAR
STARTCHAR uni02C8
ENCODING 712
SWIDTH 602 0
DWIDTH 9 0
BBX 1 3 4 8
BITMAP
80
80
80
ENDCHAR
STARTCHAR macron
ENCODING 713
SWIDTH 602 0
DWIDTH 9 0
BBX 3 1 3 10
BITMAP
E0
ENDCHAR
STARTCHAR uni02CA
ENCODING 714
SWIDTH 602 0
DWIDTH 9 0
BBX 4 2 3 9
BITMAP
30
C0
ENDCHAR
STARTCHAR uni02CB
ENCODING 715
SWIDTH 602 0
DWIDTH 9 0
BBX 4 2 2 9
BITMAP
C0
30
ENDCHAR
STARTCHAR uni02CD
ENCODING 717
SWIDTH 602 0
DWIDTH 9 0
BBX 3 1 3 -2
BITMAP
E0
ENDCHAR
STARTCHAR uni02CE
ENCODING 718
SWIDTH 602 0
DWIDTH 9 0
BBX 4 2 2 -3
BITMAP
C0
30
ENDCHAR
STARTCHAR uni02CF
ENCODING 719
SWIDTH 602 0
DWIDTH 9 0
BBX 4 2 3 -3
BITMAP
30
C0
ENDCHAR
STARTCHAR breve
ENCODING 728
SWIDTH 602 0
DWIDTH 9 0
BBX 5 2 2 9
BITMAP
88
70
ENDCHAR
STARTCHAR dotaccent
ENCODING 729
SWIDTH 602 0
DWIDTH 9 0
BBX 1 2 4 9
BITMAP
80
80
ENDCHAR
STARTCHAR ring
ENCODING 730
SWIDTH 602 0
DWIDTH 9 0
BBX 3 3 3 8
BITMAP
40
A0
40
ENDCHAR
STARTCHAR ogonek
ENCODING 731
SWIDTH 602 0
DWIDTH 9 0
BBX 3 2 4 -2
BITMAP
80
60
ENDCHAR
STARTCHAR tilde
ENCODING 732
SWIDTH 602 0
DWIDTH 9 0
BBX 5 2 2 9
BITMAP
68
B0
ENDCHAR
STARTCHAR hungarumlaut
ENCODING 733
SWIDTH 602 0
DWIDTH 9 0
BBX 5 2 2 9
BITMAP
48
90
ENDCHAR
STARTCHAR uni02EE
ENCODING 750
SWIDTH 602 0
DWIDTH 9 0
BBX 7 4 1 7
BITMAP
22
22
22
CC
ENDCHAR
STARTCHAR uni037E
ENCODING 894
SWIDTH 602 0
DWIDTH 9 0
BBX 3 9 2 -2
BITMAP
20
20
00
00
00
20
20
20
C0
ENDCHAR
STARTCHAR tonos
ENCODING 900
SWIDTH 602 0
DWIDTH 9 0
BBX 4 2 3 9
BITMAP
30
C0
ENDCHAR
STARTCHAR dieresistonos
ENCODING 901
SWIDTH 602 0
DWIDTH 9 0
BBX 4 5 3 9
BITMAP
30
C0
00
A0
A0
ENDCHAR
STARTCHAR anoteleia
ENCODING 903
SWIDTH 602 0
DWIDTH 9 0
BBX 1 2 4 3
BITMAP
80
80
ENDCHAR
STARTCHAR mu
ENCODING 956
SWIDTH 602 0
DWIDTH 9 0
BBX 7 10 1 -2
BITMAP
82
82
82
82
82
86
CA
B2
80
80
ENDCHAR
STARTCHAR uni1E00
ENCODING 7680
SWIDTH 602 0
DWIDTH 9 0
BBX 7 14 1 -4
BITMAP
10
10
28
28
44
44
FE
82
82
82
00
10
28
10
ENDCHAR
STARTCHAR uni1E01
ENCODING 7681
SWIDTH 602 0
DWIDTH 9 0
BBX 8 12 1 -4
BITMAP
78
04
04
7C
84
84
8C
73
00
10
28
10
ENDCHAR
STARTCHAR uni1E02
ENCODING 7682
SWIDTH 602 0
DWIDTH 9 0
BBX 6 13 2 0
BITMAP
20
20
00
F8
84
84
88
F0
88
84
84
84
F8
ENDCHAR
STARTCHAR uni1E03
ENCODING 7683
SWIDTH 602 0
DWIDTH 9 0
BBX 7 14 1 0
BITMAP
40
40
00
80
80
80
B8
C4
82
82
82
82
84
F8
ENDCHAR
STARTCHAR uni1E04
ENCODING 7684
SWIDTH 602 0
DWIDTH 9 0
BBX 6 13 2 -3
BITMAP
F8
84
84
88
F0
88
84
84
84
F8
00
20
20
ENDCHAR
STARTCHAR uni1E05
ENCODING 7685
SWIDTH 602 0
DWIDTH 9 0
BBX 7 14 1 -3
BITMAP
80
80
80
B8
C4
82
82
82
82
84
F8
00
10
10
ENDCHAR
STARTCHAR uni1E06
ENCODING 7686
SWIDTH 602 0
DWIDTH 9 0
BBX 6 12 2 -2
BITMAP
F8
84
84
88
F0
88
84
84
84
F8
00
70
ENDCHAR
STARTCHAR uni1E07
ENCODING 7687
SWIDTH 602 0
DWIDTH 9 0
BBX 7 13 1 -2
BITMAP
80
80
80
B8
C4
82
82
82
82
84
F8
00
38
ENDCHAR
STARTCHAR uni1E08
ENCODING 7688
SWIDTH 602 0
DWIDTH 9 0
BBX 7 15 1 -2
BITMAP
0C
30
00
3C
42
80
80
80
80
80
80
42
3C
08
30
ENDCHAR
STARTCHAR uni1E09
ENCODING 7689
SWIDTH 602 0
DWIDTH 9 0
BBX 7 13 1 -2
BITMAP
0C
30
00
3C
42
80
80
80
80
42
3C
08
30
ENDCHAR
STARTCHAR uni1E0A
ENCODING 7690
SWIDTH 602 0
DWIDTH 9 0
BBX 6 13 2 0
BITMAP
20
20
00
F0
88
84
84
84
84
84
84
88
F0
ENDCHAR
STARTCHAR uni1E0B
ENCODING 7691
SWIDTH 602 0
DWIDTH 9 0
BBX 7 14 1 0
BITMAP
04
04
00
02
02
02
3E
42
82
82
82
82
46
3A
ENDCHAR
STARTCHAR uni1E0C
ENCODING 7692
SWIDTH 602 0
DWIDTH 9 0
BBX 6 13 2 -3
BITMAP
F0
88
84
84
84
84
84
84
88
F0
00
20
20
ENDCHAR
STARTCHAR uni1E0D
ENCODING 7693
SWIDTH 602 0
DWIDTH 9 0
BBX 7 14 1 -3
BITMAP
02
02
02
3E
42
82
82
82
82
46
3A
00
10
10
ENDCHAR
STARTCHAR uni1E0E
ENCODING 7694
SWIDTH 602 0
DWIDTH 9 0
BBX 6 12 2 -2
BITMAP
F0
88
84
84
84
84
84
84
88
F0
00
70
ENDCHAR
STARTCHAR uni1E0F
ENCODING 7695
SWIDTH 602 0
DWIDTH 9 0
BBX 7 13 1 -2
BITMAP
02
02
02
3E
42
82
82
82
82
46
3A
00
38
ENDCHAR
STARTCHAR uni1E10
ENCODING 7696
SWIDTH 602 0
DWIDTH 9 0
BBX 6 12 2 -2
BITMAP
F0
88
84
84
84
84
84
84
88
F0
20
C0
ENDCHAR
STARTCHAR uni1E11
ENCODING 7697
SWIDTH 602 0
DWIDTH 9 0
BBX 7 13 1 -2
BITMAP
02
02
02
3E
42
82
82
82
82
46
3A
08
30
ENDCHAR
STARTCHAR uni1E12
ENCODING 7698
SWIDTH 602 0
DWIDTH 9 0
BBX 6 13 2 -3
BITMAP
F0
88
84
84
84
84
84
84
88
F0
00
30
48
ENDCHAR
STARTCHAR uni1E13
ENCODING 7699
SWIDTH 602 0
DWIDTH 9 0
BBX 7 14 1 -3
BITMAP
02
02
02
3E
42
82
82
82
82
46
3A
00
18
24
ENDCHAR
STARTCHAR uni1E14
ENCODING 7700
SWIDTH 602 0
DWIDTH 9 0
BBX 6 15 2 0
BITMAP
C0
30
00
70
00
FC
80
80
80
F8
80
80
80
80
FC
ENDCHAR
STARTCHAR uni1E15
ENCODING 7701
SWIDTH 602 0
DWIDTH 9 0
BBX 7 13 1 0
BITMAP
60
18
00
38
00
3C
42
82
FE
80
80
42
3C
ENDCHAR
STARTCHAR uni1E16
ENCODING 7702
SWIDTH 602 0
DWIDTH 9 0
BBX 6 15 2 0
BITMAP
18
60
00
70
00
FC
80
80
80
F8
80
80
80
80
FC
ENDCHAR
STARTCHAR uni1E17
ENCODING 7703
SWIDTH 602 0
DWIDTH 9 0
BBX 7 13 1 0
BITMAP
0C
30
00
38
00
3C
42
82
FE
80
80
42
3C
ENDCHAR
STARTCHAR uni1E18
ENCODING 7704
SWIDTH 602 0
DWIDTH 9 0
BBX 6 13 2 -3
BITMAP
FC
80
80
80
F8
80
80
80
80
FC
00
30
48
ENDCHAR
STARTCHAR uni1E19
ENCODING 7705
SWIDTH 602 0
DWIDTH 9 0
BBX 7 11 1 -3
BITMAP
3C
42
82
FE
80
80
42
3C
00
18
24
ENDCHAR
STARTCHAR uni1E1A
ENCODING 7706
SWIDTH 602 0
DWIDTH 9 0
BBX 6 13 2 -3
BITMAP
FC
80
80
80
F8
80
80
80
80
FC
00
68
B0
ENDCHAR
STARTCHAR uni1E1B
ENCODING 7707
SWIDTH 602 0
DWIDTH 9 0
BBX 7 11 1 -3
BITMAP
3C
42
82
FE
80
80
42
3C
00
34
58
ENDCHAR
STARTCHAR uni1E1C
ENCODING 7708
SWIDTH 602 0
DWIDTH 9 0
BBX 6 15 2 -2
BITMAP
88
70
00
FC
80
80
80
F8
80
80
80
80
FC
20
C0
ENDCHAR
STARTCHAR uni1E1D
ENCODING 7709
SWIDTH 602 0
DWIDTH 9 0
BBX 7 13 1 -2
BITMAP
44
38
00
3C
42
82
FE
80
80
42
3C
10
60
ENDCHAR
STARTCHAR uni1E1E
ENCODING 7710
SWIDTH 602 0
DWIDTH 9 0
BBX 6 13 2 0
BITMAP
20
20
00
FC
80
80
80
80
FC
80
80
80
80
ENDCHAR
STARTCHAR uni1E1F
ENCODING 7711
SWIDTH 602 0
DWIDTH 9 0
BBX 7 14 1 0
BITMAP
10
10
00
1E
20
20
20
FE
20
20
20
20
20
20
ENDCHAR
STARTCHAR uni1E20
ENCODING 7712
SWIDTH 602 0
DWIDTH 9 0
BBX 7 12 1 0
BITMAP
38
00
3C
42
80
80
80
82
82
82
42
3E
ENDCHAR
STARTCHAR uni1E21
ENCODING 7713
SWIDTH 602 0
DWIDTH 9 0
BBX 7 12 1 -2
BITMAP
38
00
3E
42
82
82
82
46
3A
02
84
78
ENDCHAR
STARTCHAR uni1E22
ENCODING 7714
SWIDTH 602 0
DWIDTH 9 0
BBX 7 13 1 0
BITMAP
10
10
00
82
82
82
82
FE
82
82
82
82
82
ENDCHAR
STARTCHAR uni1E23
ENCODING 7715
SWIDTH 602 0
DWIDTH 9 0
BBX 7 14 1 0
BITMAP
40
40
00
80
80
80
9C
A6
C2
82
82
82
82
82
ENDCHAR
STARTCHAR uni1E24
ENCODING 7716
SWIDTH 602 0
DWIDTH 9 0
BBX 7 13 1 -3
BITMAP
82
82
82
82
FE
82
82
82
82
82
00
10
10
ENDCHAR
STARTCHAR uni1E25
ENCODING 7717
SWIDTH 602 0
DWIDTH 9 0
BBX 7 14 1 -3
BITMAP
80
80
80
9C
A6
C2
82
82
82
82
82
00
10
10
ENDCHAR
STARTCHAR uni1E26
ENCODING 7718
SWIDTH 602 0
DWIDTH 9 0
BBX 7 13 1 0
BITMAP
28
28
00
82
82
82
82
FE
82
82
82
82
82
ENDCHAR
STARTCHAR uni1E27
ENCODING 7719
SWIDTH 602 0
DWIDTH 9 0
BBX 7 14 1 0
BITMAP
A0
A0
00
80
80
80
9C
A6
C2
82
82
82
82
82
ENDCHAR
STARTCHAR uni1E28
ENCODING 7720
SWIDTH 602 0
DWIDTH 9 0
BBX 7 12 1 -2
BITMAP
82
82
82
82
FE
82
82
82
82
82
10
60
ENDCHAR
STARTCHAR uni1E29
ENCODING 7721
SWIDTH 602 0
DWIDTH 9 0
BBX 7 13 1 -2
BITMAP
80
80
80
9C
A6
C2
82
82
82
82
82
10
60
ENDCHAR
STARTCHAR uni1E2A
ENCODING 7722
SWIDTH 602 0
DWIDTH 9 0
BBX 7 13 1 -3
BITMAP
82
82
82
82
FE
82
82
82
82
82
00
44
38
ENDCHAR
STARTCHAR uni1E2B
ENCODING 7723
SWIDTH 602 0
DWIDTH 9 0
BBX 7 14 1 -3
BITMAP
80
80
80
9C
A6
C2
82
82
82
82
82
00
44
38
ENDCHAR
STARTCHAR uni1E2C
ENCODING 7724
SWIDTH 602 0
DWIDTH 9 0
BBX 5 13 2 -3
BITMAP
F8
20
20
20
20
20
20
20
20
F8
00
68
B0
ENDCHAR
STARTCHAR uni1E2D
ENCODING 7725
SWIDTH 602 0
DWIDTH 9 0
BBX 5 14 2 -3
BITMAP
10
10
00
F0
10
10
10
10
10
10
10
00
68
B0
ENDCHAR
STARTCHAR uni1E2E
ENCODING 7726
SWIDTH 602 0
DWIDTH 9 0
BBX 5 16 2 0
BITMAP
18
60
00
88
88
00
F8
20
20
20
20
20
20
20
20
F8
ENDCHAR
STARTCHAR uni1E2F
ENCODING 7727
SWIDTH 602 0
DWIDTH 9 0
BBX 6 14 1 0
BITMAP
0C
30
00
48
48
00
F0
10
10
10
10
10
10
10
ENDCHAR
STARTCHAR uni1E30
ENCODING 7728
SWIDTH 602 0
DWIDTH 9 0
BBX 6 13 2 0
BITMAP
18
60
00
84
88
90
A0
C0
A0
90
88
84
84
ENDCHAR
STARTCHAR uni1E31
ENCODING 7729
SWIDTH 602 0
DWIDTH 9 0
BBX 7 14 1 0
BITMAP
30
C0
00
80
80
80
84
88
90
E0
90
88
84
82
ENDCHAR
STARTCHAR uni1E32
ENCODING 7730
SWIDTH 602 0
DWIDTH 9 0
BBX 6 13 2 -3
BITMAP
84
88
90
A0
C0
A0
90
88
84
84
00
20
20
ENDCHAR
STARTCHAR uni1E33
ENCODING 7731
SWIDTH 602 0
DWIDTH 9 0
BBX 7 14 1 -3
BITMAP
80
80
80
84
88
90
E0
90
88
84
82
00
10
10
ENDCHAR
STARTCHAR uni1E34
ENCODING 7732
SWIDTH 602 0
DWIDTH 9 0
BBX 6 12 2 -2
BITMAP
84
88
90
A0
C0
A0
90
88
84
84
00
70
ENDCHAR
STARTCHAR uni1E35
ENCODING 7733
SWIDTH 602 0
DWIDTH 9 0
BBX 7 13 1 -2
BITMAP
80
80
80
84
88
90
E0
90
88
84
82
00
38
ENDCHAR
STARTCHAR uni1E36
ENCODING 7734
SWIDTH 602 0
DWIDTH 9 0
BBX 6 13 2 -3
BITMAP
80
80
80
80
80
80
80
80
80
FC
00
20
20
ENDCHAR
STARTCHAR uni1E37
ENCODING 7735
SWIDTH 602 0
DWIDTH 9 0
BBX 4 14 1 -3
BITMAP
F0
10
10
10
10
10
10
10
10
10
10
00
10
10
ENDCHAR
STARTCHAR uni1E38
ENCODING 7736
SWIDTH 602 0
DWIDTH 9 0
BBX 6 15 2 -3
BITMAP
E0
00
80
80
80
80
80
80
80
80
80
FC
00
20
20
ENDCHAR
STARTCHAR uni1E39
ENCODING 7737
SWIDTH 602 0
DWIDTH 9 0
BBX 4 16 1 -3
BITMAP
70
00
F0
10
10
10
10
10
10
10
10
10
10
00
10
10
ENDCHAR
STARTCHAR uni1E3A
ENCODING 7738
SWIDTH 602 0
DWIDTH 9 0
BBX 6 12 2 -2
BITMAP
80
80
80
80
80
80
80
80
80
FC
00
70
ENDCHAR
STARTCHAR uni1E3B
ENCODING 7739
SWIDTH 602 0
DWIDTH 9 0
BBX 5 13 1 -2
BITMAP
F0
10
10
10
10
10
10
10
10
10
10
00
38
ENDCHAR
STARTCHAR uni1E3C
ENCODING 7740
SWIDTH 602 0
DWIDTH 9 0
BBX 6 13 2 -3
BITMAP
80
80
80
80
80
80
80
80
80
FC
00
30
48
ENDCHAR
STARTCHAR uni1E3D
ENCODING 7741
SWIDTH 602 0
DWIDTH 9 0
BBX 5 14 1 -3
BITMAP
F0
10
10
10
10
10
10
10
10
10
10
00
30
48
ENDCHAR
STARTCHAR uni1E3E
ENCODING 7742
SWIDTH 602 0
DWIDTH 9 0
BBX 7 13 1 0
BITMAP
0C
30
00
C6
C6
AA
AA
AA
AA
92
92
82
82
ENDCHAR
STARTCHAR uni1E3F
ENCODING 7743
SWIDTH 602 0
DWIDTH 9 0
BBX 7 11 1 0
BITMAP
0C
30
00
A4
DA
92
92
92
92
92
92
ENDCHAR
STARTCHAR uni1E40
ENCODING 7744
SWIDTH 602 0
DWIDTH 9 0
BBX 7 13 1 0
BITMAP
10
10
00
C6
C6
AA
AA
AA
AA
92
92
82
82
ENDCHAR
STARTCHAR uni1E41
ENCODING 7745
SWIDTH 602 0
DWIDTH 9 0
BBX 7 11 1 0
BITMAP
10
10
00
A4
DA
92
92
92
92
92
92
ENDCHAR
STARTCHAR uni1E42
ENCODING 7746
SWIDTH 602 0
DWIDTH 9 0
BBX 7 13 1 -3
BITMAP
C6
C6
AA
AA
AA
AA
92
92
82
82
00
10
10
ENDCHAR
STARTCHAR uni1E43
ENCODING 7747
SWIDTH 602 0
DWIDTH 9 0
BBX 7 11 1 -3
BITMAP
A4
DA
92
92
92
92
92
92
00
10
10
ENDCHAR
STARTCHAR uni1E44
ENCODING 7748
SWIDTH 602 0
DWIDTH 9 0
BBX 7 13 1 0
BITMAP
10
10
00
C2
C2
A2
A2
92
92
8A
8A
86
86
ENDCHAR
STARTCHAR uni1E45
ENCODING 7749
SWIDTH 602 0
DWIDTH 9 0
BBX 7 11 1 0
BITMAP
10
10
00
9C
A6
C2
82
82
82
82
82
ENDCHAR
STARTCHAR uni1E46
ENCODING 7750
SWIDTH 602 0
DWIDTH 9 0
BBX 7 13 1 -3
BITMAP
C2
C2
A2
A2
92
92
8A
8A
86
86
00
10
10
ENDCHAR
STARTCHAR uni1E47
ENCODING 7751
SWIDTH 602 0
DWIDTH 9 0
BBX 7 11 1 -3
BITMAP
9C
A6
C2
82
82
82
82
82
00
10
10
ENDCHAR
STARTCHAR uni1E48
ENCODING 7752
SWIDTH 602 0
DWIDTH 9 0
BBX 7 12 1 -2
BITMAP
C2
C2
A2
A2
92
92
8A
8A
86
86
00
38
ENDCHAR
STARTCHAR uni1E49
ENCODING 7753
SWIDTH 602 0
DWIDTH 9 0
BBX 7 10 1 -2
BITMAP
9C
A6
C2
82
82
82
82
82
00
38
ENDCHAR
STARTCHAR uni1E4A
ENCODING 7754
SWIDTH 602 0
DWIDTH 9 0
BBX 7 13 1 -3
BITMAP
C2
C2
A2
A2
92
92
8A
8A
86
86
00
18
24
ENDCHAR
STARTCHAR uni1E4B
ENCODING 7755
SWIDTH 602 0
DWIDTH 9 0
BBX 7 11 1 -3
BITMAP
9C
A6
C2
82
82
82
82
82
00
18
24
ENDCHAR
STARTCHAR uni1E4C
ENCODING 7756
SWIDTH 602 0
DWIDTH 9 0
BBX 7 16 1 0
BITMAP
0C
30
00
34
58
00
38
44
82
82
82
82
82
82
44
38
ENDCHAR
STARTCHAR uni1E4D
ENCODING 7757
SWIDTH 602 0
DWIDTH 9 0
BBX 7 14 1 0
BITMAP
0C
30
00
34
58
00
38
44
82
82
82
82
44
38
ENDCHAR
STARTCHAR uni1E4E
ENCODING 7758
SWIDTH 602 0
DWIDTH 9 0
BBX 7 16 1 0
BITMAP
28
28
00
34
58
00
38
44
82
82
82
82
82
82
44
38
ENDCHAR
STARTCHAR uni1E4F
ENCODING 7759
SWIDTH 602 0
DWIDTH 9 0
BBX 7 14 1 0
BITMAP
28
28
00
34
58
00
38
44
82
82
82
82
44
38
ENDCHAR
STARTCHAR uni1E50
ENCODING 7760
SWIDTH 602 0
DWIDTH 9 0
BBX 7 15 1 0
BITMAP
60
18
00
38
00
38
44
82
82
82
82
82
82
44
38
ENDCHAR
STARTCHAR uni1E51
ENCODING 7761
SWIDTH 602 0
DWIDTH 9 0
BBX 7 13 1 0
BITMAP
60
18
00
38
00
38
44
82
82
82
82
44
38
ENDCHAR
STARTCHAR uni1E52
ENCODING 7762
SWIDTH 602 0
DWIDTH 9 0
BBX 7 15 1 0
BITMAP
0C
30
00
38
00
38
44
82
82
82
82
82
82
44
38
ENDCHAR
STARTCHAR uni1E53
ENCODING 7763
SWIDTH 602 0
DWIDTH 9 0
BBX 7 13 1 0
BITMAP
0C
30
00
38
00
38
44
82
82
82
82
44
38
ENDCHAR
STARTCHAR uni1E54
ENCODING 7764
SWIDTH 602 0
DWIDTH 9 0
BBX 6 13 2 0
BITMAP
18
60
00
F8
84
84
84
88
F0
80
80
80
80
ENDCHAR
STARTCHAR uni1E55
ENCODING 7765
SWIDTH 602 0
DWIDTH 9 0
BBX 7 13 1 -2
BITMAP
0C
30
00
98
A4
C2
82
82
82
84
F8
80
80
ENDCHAR
STARTCHAR uni1E56
ENCODING 7766
SWIDTH 602 0
DWIDTH 9 0
BBX 6 13 2 0
BITMAP
20
20
00
F8
84
84
84
88
F0
80
80
80
80
ENDCHAR
STARTCHAR uni1E57
ENCODING 7767
SWIDTH 602 0
DWIDTH 9 0
BBX 7 13 1 -2
BITMAP
10
10
00
98
A4
C2
82
82
82
84
F8
80
80
ENDCHAR
STARTCHAR uni1E58
ENCODING 7768
SWIDTH 602 0
DWIDTH 9 0
BBX 6 13 2 0
BITMAP
20
20
00
F8
84
84
84
88
F0
88
88
84
84
ENDCHAR
STARTCHAR uni1E59
ENCODING 7769
SWIDTH 602 0
DWIDTH 9 0
BBX 6 11 2 0
BITMAP
20
20
00
8C
B4
C0
80
80
80
80
80
ENDCHAR
STARTCHAR uni1E5A
ENCODING 7770
SWIDTH 602 0
DWIDTH 9 0
BBX 6 13 2 -3
BITMAP
F8
84
84
84
88
F0
88
88
84
84
00
20
20
ENDCHAR
STARTCHAR uni1E5B
ENCODING 7771
SWIDTH 602 0
DWIDTH 9 0
BBX 6 11 2 -3
BITMAP
8C
B4
C0
80
80
80
80
80
00
40
40
ENDCHAR
STARTCHAR uni1E5C
ENCODING 7772
SWIDTH 602 0
DWIDTH 9 0
BBX 6 15 2 -3
BITMAP
70
00
F8
84
84
84
88
F0
88
88
84
84
00
20
20
ENDCHAR
STARTCHAR uni1E5D
ENCODING 7773
SWIDTH 602 0
DWIDTH 9 0
BBX 6 13 2 -3
BITMAP
70
00
8C
B4
C0
80
80
80
80
80
00
40
40
ENDCHAR
STARTCHAR uni1E5E
ENCODING 7774
SWIDTH 602 0
DWIDTH 9 0
BBX 6 12 2 -2
BITMAP
F8
84
84
84
88
F0
88
88
84
84
00
70
ENDCHAR
STARTCHAR uni1E5F
ENCODING 7775
SWIDTH 602 0
DWIDTH 9 0
BBX 6 10 2 -2
BITMAP
8C
B4
C0
80
80
80
80
80
00
E0
ENDCHAR
STARTCHAR uni1E60
ENCODING 7776
SWIDTH 602 0
DWIDTH 9 0
BBX 7 13 1 0
BITMAP
10
10
00
7C
82
80
80
60
1C
02
02
82
7C
ENDCHAR
STARTCHAR uni1E61
ENCODING 7777
SWIDTH 602 0
DWIDTH 9 0
BBX 7 11 1 0
BITMAP
10
10
00
7C
82
80
70
0C
02
82
7C
ENDCHAR
STARTCHAR uni1E62
ENCODING 7778
SWIDTH 602 0
DWIDTH 9 0
BBX 7 13 1 -3
BITMAP
7C
82
80
80
60
1C
02
02
82
7C
00
10
10
ENDCHAR
STARTCHAR uni1E63
ENCODING 7779
SWIDTH 602 0
DWIDTH 9 0
BBX 7 11 1 -3
BITMAP
7C
82
80
70
0C
02
82
7C
00
10
10
ENDCHAR
STARTCHAR uni1E64
ENCODING 7780
SWIDTH 602 0
DWIDTH 9 0
BBX 7 16 1 0
BITMAP
10
10
00
0C
30
00
7C
82
80
80
60
1C
02
02
82
7C
ENDCHAR
STARTCHAR uni1E65
ENCODING 7781
SWIDTH 602 0
DWIDTH 9 0
BBX 7 14 1 0
BITMAP
10
10
00
0C
30
00
7C
82
80
70
0C
02
82
7C
ENDCHAR
STARTCHAR uni1E66
ENCODING 7782
SWIDTH 602 0
DWIDTH 9 0
BBX 7 16 1 0
BITMAP
10
10
00
24
18
00
7C
82
80
80
60
1C
02
02
82
7C
ENDCHAR
STARTCHAR uni1E67
ENCODING 7783
SWIDTH 602 0
DWIDTH 9 0
BBX 7 14 1 0
BITMAP
10
10
00
24
18
00
7C
82
80
70
0C
02
82
7C
ENDCHAR
STARTCHAR uni1E68
ENCODING 7784
SWIDTH 602 0
DWIDTH 9 0
BBX 7 16 1 -3
BITMAP
10
10
00
7C
82
80
80
60
1C
02
02
82
7C
00
10
10
ENDCHAR
STARTCHAR uni1E69
ENCODING 7785
SWIDTH 602 0
DWIDTH 9 0
BBX 7 14 1 -3
BITMAP
10
10
00
7C
82
80
70
0C
02
82
7C
00
10
10
ENDCHAR
STARTCHAR uni1E6A
ENCODING 7786
SWIDTH 602 0
DWIDTH 9 0
BBX 7 13 1 0
BITMAP
10
10
00
FE
10
10
10
10
10
10
10
10
10
ENDCHAR
STARTCHAR uni1E6B
ENCODING 7787
SWIDTH 602 0
DWIDTH 9 0
BBX 7 13 1 0
BITMAP
10
10
00
10
10
FE
10
10
10
10
10
10
0E
ENDCHAR
STARTCHAR uni1E6C
ENCODING 7788
SWIDTH 602 0
DWIDTH 9 0
BBX 7 13 1 -3
BITMAP
FE
10
10
10
10
10
10
10
10
10
00
10
10
ENDCHAR
STARTCHAR uni1E6D
ENCODING 7789
SWIDTH 602 0
DWIDTH 9 0
BBX 7 13 1 -3
BITMAP
10
10
FE
10
10
10
10
10
10
0E
00
08
08
ENDCHAR
STARTCHAR uni1E6E
ENCODING 7790
SWIDTH 602 0
DWIDTH 9 0
BBX 7 12 1 -2
BITMAP
FE
10
10
10
10
10
10
10
10
10
00
38
ENDCHAR
STARTCHAR uni1E6F
ENCODING 7791
SWIDTH 602 0
DWIDTH 9 0
BBX 7 12 1 -2
BITMAP
10
10
FE
10
10
10
10
10
10
0E
00
1C
ENDCHAR
STARTCHAR uni1E70
ENCODING 7792
SWIDTH 602 0
DWIDTH 9 0
BBX 7 13 1 -3
BITMAP
FE
10
10
10
10
10
10
10
10
10
00
18
24
ENDCHAR
STARTCHAR uni1E71
ENCODING 7793
SWIDTH 602 0
DWIDTH 9 0
BBX 7 13 1 -3
BITMAP
10
10
FE
10
10
10
10
10
10
0E
00
18
24
ENDCHAR
STARTCHAR uni1E72
ENCODING 7794
SWIDTH 602 0
DWIDTH 9 0
BBX 7 13 1 -3
BITMAP
82
82
82
82
82
82
82
82
44
38
00
28
28
ENDCHAR
STARTCHAR uni1E73
ENCODING 7795
SWIDTH 602 0
DWIDTH 9 0
BBX 7 11 1 -3
BITMAP
82
82
82
82
82
86
CA
72
00
28
28
ENDCHAR
STARTCHAR uni1E74
ENCODING 7796
SWIDTH 602 0
DWIDTH 9 0
BBX 7 13 1 -3
BITMAP
82
82
82
82
82
82
82
82
44
38
00
34
58
ENDCHAR
STARTCHAR uni1E75
ENCODING 7797
SWIDTH 602 0
DWIDTH 9 0
BBX 7 11 1 -3
BITMAP
82
82
82
82
82
86
CA
72
00
34
58
ENDCHAR
STARTCHAR uni1E76
ENCODING 7798
SWIDTH 602 0
DWIDTH 9 0
BBX 7 13 1 -3
BITMAP
82
82
82
82
82
82
82
82
44
38
00
18
24
ENDCHAR
STARTCHAR uni1E77
ENCODING 7799
SWIDTH 602 0
DWIDTH 9 0
BBX 7 11 1 -3
BITMAP
82
82
82
82
82
86
CA
72
00
18
24
ENDCHAR
STARTCHAR uni1E78
ENCODING 7800
SWIDTH 602 0
DWIDTH 9 0
BBX 7 16 1 0
BITMAP
0C
30
00
34
58
00
82
82
82
82
82
82
82
82
44
38
ENDCHAR
STARTCHAR uni1E79
ENCODING 7801
SWIDTH 602 0
DWIDTH 9 0
BBX 7 14 1 0
BITMAP
0C
30
00
34
58
00
82
82
82
82
82
86
CA
72
ENDCHAR
STARTCHAR uni1E7A
ENCODING 7802
SWIDTH 602 0
DWIDTH 9 0
BBX 7 15 1 0
BITMAP
28
28
00
38
00
82
82
82
82
82
82
82
82
44
38
ENDCHAR
STARTCHAR uni1E7B
ENCODING 7803
SWIDTH 602 0
DWIDTH 9 0
BBX 7 13 1 0
BITMAP
28
28
00
38
00
82
82
82
82
82
86
CA
72
ENDCHAR
STARTCHAR uni1E7C
ENCODING 7804
SWIDTH 602 0
DWIDTH 9 0
BBX 7 13 1 0
BITMAP
34
58
00
82
82
82
44
44
44
28
28
10
10
ENDCHAR
STARTCHAR uni1E7D
ENCODING 7805
SWIDTH 602 0
DWIDTH 9 0
BBX 7 11 1 0
BITMAP
34
58
00
82
82
44
44
28
28
10
10
ENDCHAR
STARTCHAR uni1E7E
ENCODING 7806
SWIDTH 602 0
DWIDTH 9 0
BBX 7 13 1 -3
BITMAP
82
82
82
44
44
44
28
28
10
10
00
10
10
ENDCHAR
STARTCHAR uni1E7F
ENCODING 7807
SWIDTH 602 0
DWIDTH 9 0
BBX 7 11 1 -3
BITMAP
82
82
44
44
28
28
10
10
00
10
10
ENDCHAR
STARTCHAR Wgrave
ENCODING 7808
SWIDTH 602 0
DWIDTH 9 0
BBX 7 13 1 0
BITMAP
60
18
00
82
92
92
AA
AA
AA
44
44
44
44
ENDCHAR
STARTCHAR wgrave
ENCODING 7809
SWIDTH 602 0
DWIDTH 9 0
BBX 7 11 1 0
BITMAP
60
18
00
82
92
92
AA
AA
44
44
44
ENDCHAR
STARTCHAR Wacute
ENCODING 7810
SWIDTH 602 0
DWIDTH 9 0
BBX 7 13 1 0
BITMAP
0C
30
00
82
92
92
AA
AA
AA
44
44
44
44
ENDCHAR
STARTCHAR wacute
ENCODING 7811
SWIDTH 602 0
DWIDTH 9 0
BBX 7 11 1 0
BITMAP
0C
30
00
82
92
92
AA
AA
44
44
44
ENDCHAR
STARTCHAR Wdieresis
ENCODING 7812
SWIDTH 602 0
DWIDTH 9 0
BBX 7 13 1 0
BITMAP
28
28
00
82
92
92
AA
AA
AA
44
44
44
44
ENDCHAR
STARTCHAR wdieresis
ENCODING 7813
SWIDTH 602 0
DWIDTH 9 0
BBX 7 11 1 0
BITMAP
28
28
00
82
92
92
AA
AA
44
44
44
ENDCHAR
STARTCHAR uni1E86
ENCODING 7814
SWIDTH 602 0
DWIDTH 9 0
BBX 7 13 1 0
BITMAP
10
10
00
82
92
92
AA
AA
AA
44
44
44
44
ENDCHAR
STARTCHAR uni1E87
ENCODING 7815
SWIDTH 602 0
DWIDTH 9 0
BBX 7 11 1 0
BITMAP
10
10
00
82
92
92
AA
AA
44
44
44
ENDCHAR
STARTCHAR uni1E88
ENCODING 7816
SWIDTH 602 0
DWIDTH 9 0
BBX 7 13 1 -3
BITMAP
82
92
92
AA
AA
AA
44
44
44
44
00
10
10
ENDCHAR
STARTCHAR uni1E89
ENCODING 7817
SWIDTH 602 0
DWIDTH 9 0
BBX 7 11 1 -3
BITMAP
82
92
92
AA
AA
44
44
44
00
10
10
ENDCHAR
STARTCHAR uni1E8A
ENCODING 7818
SWIDTH 602 0
DWIDTH 9 0
BBX 7 13 1 0
BITMAP
10
10
00
82
82
44
28
10
28
44
44
82
82
ENDCHAR
STARTCHAR uni1E8B
ENCODING 7819
SWIDTH 602 0
DWIDTH 9 0
BBX 7 11 1 0
BITMAP
10
10
00
82
44
28
10
28
44
82
82
ENDCHAR
STARTCHAR uni1E8C
ENCODING 7820
SWIDTH 602 0
DWIDTH 9 0
BBX 7 13 1 0
BITMAP
28
28
00
82
82
44
28
10
28
44
44
82
82
ENDCHAR
STARTCHAR uni1E8D
ENCODING 7821
SWIDTH 602 0
DWIDTH 9 0
BBX 7 11 1 0
BITMAP
28
28
00
82
44
28
10
28
44
82
82
ENDCHAR
STARTCHAR uni1E8E
ENCODING 7822
SWIDTH 602 0
DWIDTH 9 0
BBX 7 13 1 0
BITMAP
10
10
00
82
82
44
44
38
10
10
10
10
10
ENDCHAR
STARTCHAR uni1E8F
ENCODING 7823
SWIDTH 602 0
DWIDTH 9 0
BBX 7 13 1 -2
BITMAP
10
10
00
82
82
44
44
28
28
10
10
20
60
ENDCHAR
STARTCHAR uni1E90
ENCODING 7824
SWIDTH 602 0
DWIDTH 9 0
BBX 7 13 1 0
BITMAP
18
24
00
FE
02
04
08
10
20
40
80
80
FE
ENDCHAR
STARTCHAR uni1E91
ENCODING 7825
SWIDTH 602 0
DWIDTH 9 0
BBX 7 11 1 0
BITMAP
18
24
00
FE
04
08
10
20
40
80
FE
ENDCHAR
STARTCHAR uni1E92
ENCODING 7826
SWIDTH 602 0
DWIDTH 9 0
BBX 7 13 1 -3
BITMAP
FE
02
04
08
10
20
40
80
80
FE
00
10
10
ENDCHAR
STARTCHAR uni1E93
ENCODING 7827
SWIDTH 602 0
DWIDTH 9 0
BBX 7 11 1 -3
BITMAP
FE
04
08
10
20
40
80
FE
00
10
10
ENDCHAR
STARTCHAR uni1E94
ENCODING 7828
SWIDTH 602 0
DWIDTH 9 0
BBX 7 12 1 -2
BITMAP
FE
02
04
08
10
20
40
80
80
FE
00
38
ENDCHAR
STARTCHAR uni1E95
ENCODING 7829
SWIDTH 602 0
DWIDTH 9 0
BBX 7 10 1 -2
BITMAP
FE
04
08
10
20
40
80
FE
00
38
ENDCHAR
STARTCHAR uni1E96
ENCODING 7830
SWIDTH 602 0
DWIDTH 9 0
BBX 7 13 1 -2
BITMAP
80
80
80
9C
A6
C2
82
82
82
82
82
00
38
ENDCHAR
STARTCHAR uni1E97
ENCODING 7831
SWIDTH 602 0
DWIDTH 9 0
BBX 7 13 1 0
BITMAP
28
28
00
10
10
FE
10
10
10
10
10
10
0E
ENDCHAR
STARTCHAR uni1E98
ENCODING 7832
SWIDTH 602 0
DWIDTH 9 0
BBX 7 12 1 0
BITMAP
10
28
10
00
82
92
92
AA
AA
44
44
44
ENDCHAR
STARTCHAR uni1E99
ENCODING 7833
SWIDTH 602 0
DWIDTH 9 0
BBX 7 14 1 -2
BITMAP
10
28
10
00
82
82
44
44
28
28
10
10
20
60
ENDCHAR
STARTCHAR uni1EA0
ENCODING 7840
SWIDTH 602 0
DWIDTH 9 0
BBX 7 13 1 -3
BITMAP
10
10
28
28
44
44
FE
82
82
82
00
10
10
ENDCHAR
STARTCHAR uni1EA1
ENCODING 7841
SWIDTH 602 0
DWIDTH 9 0
BBX 8 11 1 -3
BITMAP
78
04
04
7C
84
84
8C
73
00
10
10
ENDCHAR
STARTCHAR uni1EA4
ENCODING 7844
SWIDTH 602 0
DWIDTH 9 0
BBX 7 16 1 0
BITMAP
0C
30
00
18
24
00
10
10
28
28
44
44
FE
82
82
82
ENDCHAR
STARTCHAR uni1EA5
ENCODING 7845
SWIDTH 602 0
DWIDTH 9 0
BBX 8 14 1 0
BITMAP
06
18
00
18
24
00
78
04
04
7C
84
84
8C
73
ENDCHAR
STARTCHAR uni1EA6
ENCODING 7846
SWIDTH 602 0
DWIDTH 9 0
BBX 7 16 1 0
BITMAP
60
18
00
18
24
00
10
10
28
28
44
44
FE
82
82
82
ENDCHAR
STARTCHAR uni1EA7
ENCODING 7847
SWIDTH 602 0
DWIDTH 9 0
BBX 8 14 1 0
BITMAP
60
18
00
18
24
00
78
04
04
7C
84
84
8C
73
ENDCHAR
STARTCHAR uni1EAA
ENCODING 7850
SWIDTH 602 0
DWIDTH 9 0
BBX 7 16 1 0
BITMAP
34
58
00
18
24
00
10
10
28
28
44
44
FE
82
82
82
ENDCHAR
STARTCHAR uni1EAB
ENCODING 7851
SWIDTH 602 0
DWIDTH 9 0
BBX 8 14 1 0
BITMAP
1A
2C
00
18
24
00
78
04
04
7C
84
84
8C
73
ENDCHAR
STARTCHAR uni1EAC
ENCODING 7852
SWIDTH 602 0
DWIDTH 9 0
BBX 7 16 1 -3
BITMAP
18
24
00
10
10
28
28
44
44
FE
82
82
82
00
10
10
ENDCHAR
STARTCHAR uni1EAD
ENCODING 7853
SWIDTH 602 0
DWIDTH 9 0
BBX 8 14 1 -3
BITMAP
18
24
00
78
04
04
7C
84
84
8C
73
00
10
10
ENDCHAR
STARTCHAR uni1EAE
ENCODING 7854
SWIDTH 602 0
DWIDTH 9 0
BBX 7 16 1 0
BITMAP
0C
30
00
44
38
00
10
10
28
28
44
44
FE
82
82
82
ENDCHAR
STARTCHAR uni1EAF
ENCODING 7855
SWIDTH 602 0
DWIDTH 9 0
BBX 8 14 1 0
BITMAP
0C
30
00
44
38
00
78
04
04
7C
84
84
8C
73
ENDCHAR
STARTCHAR uni1EB0
ENCODING 7856
SWIDTH 602 0
DWIDTH 9 0
BBX 7 16 1 0
BITMAP
60
18
00
44
38
00
10
10
28
28
44
44
FE
82
82
82
ENDCHAR
STARTCHAR uni1EB1
ENCODING 7857
SWIDTH 602 0
DWIDTH 9 0
BBX 8 14 1 0
BITMAP
60
18
00
44
38
00
78
04
04
7C
84
84
8C
73
ENDCHAR
STARTCHAR uni1EB4
ENCODING 7860
SWIDTH 602 0
DWIDTH 9 0
BBX 7 16 1 0
BITMAP
34
58
00
44
38
00
10
10
28
28
44
44
FE
82
82
82
ENDCHAR
STARTCHAR uni1EB5
ENCODING 7861
SWIDTH 602 0
DWIDTH 9 0
BBX 8 14 1 0
BITMAP
34
58
00
44
38
00
78
04
04
7C
84
84
8C
73
ENDCHAR
STARTCHAR uni1EB6
ENCODING 7862
SWIDTH 602 0
DWIDTH 9 0
BBX 7 16 1 -3
BITMAP
44
38
00
10
10
28
28
44
44
FE
82
82
82
00
10
10
ENDCHAR
STARTCHAR uni1EB7
ENCODING 7863
SWIDTH 602 0
DWIDTH 9 0
BBX 8 14 1 -3
BITMAP
44
38
00
78
04
04
7C
84
84
8C
73
00
10
10
ENDCHAR
STARTCHAR uni1EB8
ENCODING 7864
SWIDTH 602 0
DWIDTH 9 0
BBX 6 13 2 -3
BITMAP
FC
80
80
80
F8
80
80
80
80
FC
00
20
20
ENDCHAR
STARTCHAR uni1EB9
ENCODING 7865
SWIDTH 602 0
DWIDTH 9 0
BBX 7 11 1 -3
BITMAP
3C
42
82
FE
80
80
42
3C
00
10
10
ENDCHAR
STARTCHAR uni1EBC
ENCODING 7868
SWIDTH 602 0
DWIDTH 9 0
BBX 6 13 2 0
BITMAP
68
B0
00
FC
80
80
80
F8
80
80
80
80
FC
ENDCHAR
STARTCHAR uni1EBD
ENCODING 7869
SWIDTH 602 0
DWIDTH 9 0
BBX 7 11 1 0
BITMAP
34
58
00
3C
42
82
FE
80
80
42
3C
ENDCHAR
STARTCHAR uni1EBE
ENCODING 7870
SWIDTH 602 0
DWIDTH 9 0
BBX 6 16 2 0
BITMAP
0C
30
00
30
48
00
FC
80
80
80
F8
80
80
80
80
FC
ENDCHAR
STARTCHAR uni1EBF
ENCODING 7871
SWIDTH 602 0
DWIDTH 9 0
BBX 7 14 1 0
BITMAP
06
18
00
18
24
00
3C
42
82
FE
80
80
42
3C
ENDCHAR
STARTCHAR uni1EC0
ENCODING 7872
SWIDTH 602 0
DWIDTH 9 0
BBX 6 16 2 0
BITMAP
C0
30
00
30
48
00
FC
80
80
80
F8
80
80
80
80
FC
ENDCHAR
STARTCHAR uni1EC1
ENCODING 7873
SWIDTH 602 0
DWIDTH 9 0
BBX 7 14 1 0
BITMAP
60
18
00
18
24
00
3C
42
82
FE
80
80
42
3C
ENDCHAR
STARTCHAR uni1EC4
ENCODING 7876
SWIDTH 602 0
DWIDTH 9 0
BBX 6 16 2 0
BITMAP
34
58
00
30
48
00
FC
80
80
80
F8
80
80
80
80
FC
ENDCHAR
STARTCHAR uni1EC5
ENCODING 7877
SWIDTH 602 0
DWIDTH 9 0
BBX 7 14 1 0
BITMAP
1A
2C
00
18
24
00
3C
42
82
FE
80
80
42
3C
ENDCHAR
STARTCHAR uni1EC6
ENCODING 7878
SWIDTH 602 0
DWIDTH 9 0
BBX 6 16 2 -3
BITMAP
60
90
00
FC
80
80
80
F8
80
80
80
80
FC
00
20
20
ENDCHAR
STARTCHAR uni1EC7
ENCODING 7879
SWIDTH 602 0
DWIDTH 9 0
BBX 7 14 1 -3
BITMAP
18
24
00
3C
42
82
FE
80
80
42
3C
00
10
10
ENDCHAR
STARTCHAR uni1ECA
ENCODING 7882
SWIDTH 602 0
DWIDTH 9 0
BBX 5 13 2 -3
BITMAP
F8
20
20
20
20
20
20
20
20
F8
00
20
20
ENDCHAR
STARTCHAR uni1ECB
ENCODING 7883
SWIDTH 602 0
DWIDTH 9 0
BBX 4 14 2 -3
BITMAP
10
10
00
F0
10
10
10
10
10
10
10
00
10
10
ENDCHAR
STARTCHAR uni1ECC
ENCODING 7884
SWIDTH 602 0
DWIDTH 9 0
BBX 7 13 1 -3
BITMAP
38
44
82
82
82
82
82
82
44
38
00
10
10
ENDCHAR
STARTCHAR uni1ECD
ENCODING 7885
SWIDTH 602 0
DWIDTH 9 0
BBX 7 11 1 -3
BITMAP
38
44
82
82
82
82
44
38
00
10
10
ENDCHAR
STARTCHAR uni1ED0
ENCODING 7888
SWIDTH 602 0
DWIDTH 9 0
BBX 7 16 1 0
BITMAP
0C
30
00
18
24
00
38
44
82
82
82
82
82
82
44
38
ENDCHAR
STARTCHAR uni1ED1
ENCODING 7889
SWIDTH 602 0
DWIDTH 9 0
BBX 7 14 1 0
BITMAP
06
18
00
18
24
00
38
44
82
82
82
82
44
38
ENDCHAR
STARTCHAR uni1ED2
ENCODING 7890
SWIDTH 602 0
DWIDTH 9 0
BBX 7 16 1 0
BITMAP
60
18
00
18
24
00
38
44
82
82
82
82
82
82
44
38
ENDCHAR
STARTCHAR uni1ED3
ENCODING 7891
SWIDTH 602 0
DWIDTH 9 0
BBX 7 14 1 0
BITMAP
60
18
00
18
24
00
38
44
82
82
82
82
44
38
ENDCHAR
STARTCHAR uni1ED6
ENCODING 7894
SWIDTH 602 0
DWIDTH 9 0
BBX 7 16 1 0
BITMAP
34
58
00
18
24
00
38
44
82
82
82
82
82
82
44
38
ENDCHAR
STARTCHAR uni1ED7
ENCODING 7895
SWIDTH 602 0
DWIDTH 9 0
BBX 7 14 1 0
BITMAP
1A
2C
00
18
24
00
38
44
82
82
82
82
44
38
ENDCHAR
STARTCHAR uni1ED8
ENCODING 7896
SWIDTH 602 0
DWIDTH 9 0
BBX 7 16 1 -3
BITMAP
18
24
00
38
44
82
82
82
82
82
82
44
38
00
10
10
ENDCHAR
STARTCHAR uni1ED9
ENCODING 7897
SWIDTH 602 0
DWIDTH 9 0
BBX 7 14 1 -3
BITMAP
18
24
00
38
44
82
82
82
82
44
38
00
10
10
ENDCHAR
STARTCHAR uni1EDA
ENCODING 7898
SWIDTH 602 0
DWIDTH 9 0
BBX 10 13 1 0
BITMAP
0300
0C00
0000
3840
4440
8240
8380
8200
8200
8200
8200
4400
3800
ENDCHAR
STARTCHAR uni1EDB
ENCODING 7899
SWIDTH 602 0
DWIDTH 9 0
BBX 10 11 1 0
BITMAP
0300
0C00
0000
3840
4440
8240
8380
8200
8200
4400
3800
ENDCHAR
STARTCHAR uni1EDC
ENCODING 7900
SWIDTH 602 0
DWIDTH 9 0
BBX 10 13 1 0
BITMAP
1800
0600
0000
3840
4440
8240
8380
8200
8200
8200
8200
4400
3800
ENDCHAR
STARTCHAR uni1EDD
ENCODING 7901
SWIDTH 602 0
DWIDTH 9 0
BBX 10 11 1 0
BITMAP
1800
0600
0000
3840
4440
8240
8380
8200
8200
4400
3800
ENDCHAR
STARTCHAR uni1EE0
ENCODING 7904
SWIDTH 602 0
DWIDTH 9 0
BBX 10 13 1 0
BITMAP
0D00
1600
0000
3840
4440
8240
8380
8200
8200
8200
8200
4400
3800
ENDCHAR
STARTCHAR uni1EE1
ENCODING 7905
SWIDTH 602 0
DWIDTH 9 0
BBX 10 11 1 0
BITMAP
0D00
1600
0000
3840
4440
8240
8380
8200
8200
4400
3800
ENDCHAR
STARTCHAR uni1EE2
ENCODING 7906
SWIDTH 602 0
DWIDTH 9 0
BBX 10 13 1 -3
BITMAP
3840
4440
8240
8380
8200
8200
8200
8200
4400
3800
0000
0800
0800
ENDCHAR
STARTCHAR uni1EE3
ENCODING 7907
SWIDTH 602 0
DWIDTH 9 0
BBX 10 11 1 -3
BITMAP
3840
4440
8240
8380
8200
8200
4400
3800
0000
0800
0800
ENDCHAR
STARTCHAR uni1EE4
ENCODING 7908
SWIDTH 602 0
DWIDTH 9 0
BBX 7 13 1 -3
BITMAP
82
82
82
82
82
82
82
82
44
38
00
10
10
ENDCHAR
STARTCHAR uni1EE5
ENCODING 7909
SWIDTH 602 0
DWIDTH 9 0
BBX 7 11 1 -3
BITMAP
82
82
82
82
82
86
CA
72
00
10
10
ENDCHAR
STARTCHAR uni1EE8
ENCODING 7912
SWIDTH 602 0
DWIDTH 9 0
BBX 10 13 1 0
BITMAP
0300
0C00
0000
8240
8240
8240
8380
8200
8200
8200
8200
4400
3800
ENDCHAR
STARTCHAR uni1EE9
ENCODING 7913
SWIDTH 602 0
DWIDTH 9 0
BBX 10 11 1 0
BITMAP
0300
0C00
0000
8240
8240
8240
8380
8200
8600
CA00
7200
ENDCHAR
STARTCHAR uni1EEA
ENCODING 7914
SWIDTH 602 0
DWIDTH 9 0
BBX 10 13 1 0
BITMAP
1800
0600
0000
8240
8240
8240
8380
8200
8200
8200
8200
4400
3800
ENDCHAR
STARTCHAR uni1EEB
ENCODING 7915
SWIDTH 602 0
DWIDTH 9 0
BBX 10 11 1 0
BITMAP
1800
0600
0000
8240
8240
8240
8380
8200
8600
CA00
7200
ENDCHAR
STARTCHAR uni1EEE
ENCODING 7918
SWIDTH 602 0
DWIDTH 9 0
BBX 10 13 1 0
BITMAP
0D00
1600
0000
8240
8240
8240
8380
8200
8200
8200
8200
4400
3800
ENDCHAR
STARTCHAR uni1EEF
ENCODING 7919
SWIDTH 602 0
DWIDTH 9 0
BBX 10 11 1 0
BITMAP
0D00
1600
0000
8240
8240
8240
8380
8200
8600
CA00
7200
ENDCHAR
STARTCHAR uni1EF0
ENCODING 7920
SWIDTH 602 0
DWIDTH 9 0
BBX 10 13 1 -3
BITMAP
8240
8240
8240
8380
8200
8200
8200
8200
4400
3800
0000
0800
0800
ENDCHAR
STARTCHAR uni1EF1
ENCODING 7921
SWIDTH 602 0
DWIDTH 9 0
BBX 10 11 1 -3
BITMAP
8240
8240
8240
8380
8200
8600
CA00
7200
0000
0800
0800
ENDCHAR
STARTCHAR Ygrave
ENCODING 7922
SWIDTH 602 0
DWIDTH 9 0
BBX 7 13 1 0
BITMAP
60
18
00
82
82
44
44
38
10
10
10
10
10
ENDCHAR
STARTCHAR ygrave
ENCODING 7923
SWIDTH 602 0
DWIDTH 9 0
BBX 7 13 1 -2
BITMAP
60
18
00
82
82
44
44
28
28
10
10
20
60
ENDCHAR
STARTCHAR uni1EF4
ENCODING 7924
SWIDTH 602 0
DWIDTH 9 0
BBX 7 13 1 -3
BITMAP
82
82
44
44
38
10
10
10
10
10
00
10
10
ENDCHAR
STARTCHAR uni1EF5
ENCODING 7925
SWIDTH 602 0
DWIDTH 9 0
BBX 7 13 1 -5
BITMAP
82
82
44
44
28
28
10
10
20
60
00
20
20
ENDCHAR
STARTCHAR uni1EF8
ENCODING 7928
SWIDTH 602 0
DWIDTH 9 0
BBX 7 13 1 0
BITMAP
34
58
00
82
82
44
44
38
10
10
10
10
10
ENDCHAR
STARTCHAR uni1EF9
ENCODING 7929
SWIDTH 602 0
DWIDTH 9 0
BBX 7 13 1 -2
BITMAP
34
58
00
82
82
44
44
28
28
10
10
20
60
ENDCHAR
STARTCHAR uni2000
ENCODING 8192
SWIDTH 602 0
DWIDTH 9 0
BBX 1 1 0 0
BITMAP
00
ENDCHAR
STARTCHAR uni2001
ENCODING 8193
SWIDTH 602 0
DWIDTH 9 0
BBX 1 1 0 0
BITMAP
00
ENDCHAR
STARTCHAR uni2002
ENCODING 8194
SWIDTH 602 0
DWIDTH 9 0
BBX 1 1 0 0
BITMAP
00
ENDCHAR
STARTCHAR uni2003
ENCODING 8195
SWIDTH 602 0
DWIDTH 9 0
BBX 1 1 0 0
BITMAP
00
ENDCHAR
STARTCHAR uni2004
ENCODING 8196
SWIDTH 602 0
DWIDTH 9 0
BBX 1 1 0 0
BITMAP
00
ENDCHAR
STARTCHAR uni2005
ENCODING 8197
SWIDTH 602 0
DWIDTH 9 0
BBX 1 1 0 0
BITMAP
00
ENDCHAR
STARTCHAR uni2006
ENCODING 8198
SWIDTH 602 0
DWIDTH 9 0
BBX 1 1 0 0
BITMAP
00
ENDCHAR
STARTCHAR uni2007
ENCODING 8199
SWIDTH 602 0
DWIDTH 9 0
BBX 1 1 0 0
BITMAP
00
ENDCHAR
STARTCHAR uni2008
ENCODING 8200
SWIDTH 602 0
DWIDTH 9 0
BBX 1 1 0 0
BITMAP
00
ENDCHAR
STARTCHAR uni2009
ENCODING 8201
SWIDTH 602 0
DWIDTH 9 0
BBX 1 1 0 0
BITMAP
00
ENDCHAR
STARTCHAR uni200A
ENCODING 8202
SWIDTH 602 0
DWIDTH 9 0
BBX 1 1 0 0
BITMAP
00
ENDCHAR
STARTCHAR uni2010
ENCODING 8208
SWIDTH 602 0
DWIDTH 9 0
BBX 3 1 3 4
BITMAP
E0
ENDCHAR
STARTCHAR uni2011
ENCODING 8209
SWIDTH 602 0
DWIDTH 9 0
BBX 3 1 3 4
BITMAP
E0
ENDCHAR
STARTCHAR figuredash
ENCODING 8210
SWIDTH 602 0
DWIDTH 9 0
BBX 5 1 2 4
BITMAP
F8
ENDCHAR
STARTCHAR endash
ENCODING 8211
SWIDTH 602 0
DWIDTH 9 0
BBX 5 1 2 4
BITMAP
F8
ENDCHAR
STARTCHAR emdash
ENCODING 8212
SWIDTH 602 0
DWIDTH 9 0
BBX 7 1 1 4
BITMAP
FE
ENDCHAR
STARTCHAR afii00208
ENCODING 8213
SWIDTH 602 0
DWIDTH 9 0
BBX 7 1 1 4
BITMAP
FE
ENDCHAR
STARTCHAR quoteleft
ENCODING 8216
SWIDTH 602 0
DWIDTH 9 0
BBX 3 4 3 7
BITMAP
60
80
80
80
ENDCHAR
STARTCHAR quoteright
ENCODING 8217
SWIDTH 602 0
DWIDTH 9 0
BBX 3 4 2 7
BITMAP
20
20
20
C0
ENDCHAR
STARTCHAR quotesinglbase
ENCODING 8218
SWIDTH 602 0
DWIDTH 9 0
BBX 3 4 2 -2
BITMAP
20
20
20
C0
ENDCHAR
STARTCHAR quotereversed
ENCODING 8219
SWIDTH 602 0
DWIDTH 9 0
BBX 3 4 2 7
BITMAP
80
80
80
60
ENDCHAR
STARTCHAR quotedblleft
ENCODING 8220
SWIDTH 602 0
DWIDTH 9 0
BBX 7 4 2 7
BITMAP
66
88
88
88
ENDCHAR
STARTCHAR quotedblright
ENCODING 8221
SWIDTH 602 0
DWIDTH 9 0
BBX 7 4 1 7
BITMAP
22
22
22
CC
ENDCHAR
STARTCHAR quotedblbase
ENCODING 8222
SWIDTH 602 0
DWIDTH 9 0
BBX 7 4 0 -2
BITMAP
22
22
22
CC
ENDCHAR
STARTCHAR uni201F
ENCODING 8223
SWIDTH 602 0
DWIDTH 9 0
BBX 7 4 1 7
BITMAP
88
88
88
66
ENDCHAR
STARTCHAR dagger
ENCODING 8224
SWIDTH 602 0
DWIDTH 9 0
BBX 5 11 2 -1
BITMAP
20
20
20
F8
20
20
20
20
20
20
20
ENDCHAR
STARTCHAR daggerdbl
ENCODING 8225
SWIDTH 602 0
DWIDTH 9 0
BBX 5 11 2 -1
BITMAP
20
20
20
F8
20
20
20
F8
20
20
20
ENDCHAR
STARTCHAR bullet
ENCODING 8226
SWIDTH 602 0
DWIDTH 9 0
BBX 2 2 3 3
BITMAP
C0
C0
ENDCHAR
STARTCHAR ellipsis
ENCODING 8230
SWIDTH 602 0
DWIDTH 9 0
BBX 5 2 2 0
BITMAP
88
88
ENDCHAR
STARTCHAR perthousand
ENCODING 8240
SWIDTH 602 0
DWIDTH 9 0
BBX 9 10 0 0
BITMAP
3000
4800
4880
3300
0C00
3000
DB00
2480
2480
1B00
ENDCHAR
STARTCHAR guilsinglleft
ENCODING 8249
SWIDTH 602 0
DWIDTH 9 0
BBX 3 5 3 2
BITMAP
20
40
80
40
20
ENDCHAR
STARTCHAR guilsinglright
ENCODING 8250
SWIDTH 602 0
DWIDTH 9 0
BBX 3 5 3 2
BITMAP
80
40
20
40
80
ENDCHAR
STARTCHAR uni203D
ENCODING 8253
SWIDTH 602 0
DWIDTH 9 0
BBX 6 10 1 0
BITMAP
78
94
14
14
18
10
30
00
30
30
ENDCHAR
STARTCHAR fraction
ENCODING 8260
SWIDTH 602 0
DWIDTH 9 0
BBX 7 10 1 0
BITMAP
02
04
04
08
10
10
20
40
40
80
ENDCHAR
STARTCHAR oneinferior
ENCODING 8321
SWIDTH 602 0
DWIDTH 9 0
BBX 5 7 2 -2
BITMAP
60
A0
20
20
20
20
F8
ENDCHAR
STARTCHAR twoinferior
ENCODING 8322
SWIDTH 602 0
DWIDTH 9 0
BBX 5 7 2 -2
BITMAP
F0
08
08
30
40
80
F8
ENDCHAR
STARTCHAR threeinferior
ENCODING 8323
SWIDTH 602 0
DWIDTH 9 0
BBX 5 7 2 -2
BITMAP
F0
08
08
70
08
08
F0
ENDCHAR
STARTCHAR uni20A5
ENCODING 8357
SWIDTH 602 0
DWIDTH 9 0
BBX 7 12 1 -2
BITMAP
02
02
A4
DE
9A
9A
92
92
B2
B2
40
40
ENDCHAR
STARTCHAR uni20A6
ENCODING 8358
SWIDTH 602 0
DWIDTH 9 0
BBX 7 10 1 0
BITMAP
C2
C2
A2
FE
92
FE
8A
8A
86
86
ENDCHAR
STARTCHAR uni20A9
ENCODING 8361
SWIDTH 602 0
DWIDTH 9 0
BBX 7 10 1 0
BITMAP
82
92
92
FE
AA
FE
44
44
44
44
ENDCHAR
STARTCHAR Euro
ENCODING 8364
SWIDTH 602 0
DWIDTH 9 0
BBX 9 10 -1 0
BITMAP
0F00
1080
2000
FE00
2000
FE00
2000
2000
1080
0F00
ENDCHAR
STARTCHAR uni20AD
ENCODING 8365
SWIDTH 602 0
DWIDTH 9 0
BBX 6 10 2 0
BITMAP
84
88
90
A0
FC
A0
90
88
84
84
ENDCHAR
STARTCHAR trademark
ENCODING 8482
SWIDTH 602 0
DWIDTH 9 0
BBX 8 4 0 6
BITMAP
FB
55
55
51
ENDCHAR
STARTCHAR uni212A
ENCODING 8490
SWIDTH 602 0
DWIDTH 9 0
BBX 6 10 2 0
BITMAP
84
88
90
A0
C0
A0
90
88
84
84
ENDCHAR
STARTCHAR uni212B
ENCODING 8491
SWIDTH 602 0
DWIDTH 9 0
BBX 7 12 1 0
BITMAP
10
28
10
10
28
28
44
44
FE
82
82
82
ENDCHAR
STARTCHAR uni2132
ENCODING 8498
SWIDTH 602 0
DWIDTH 9 0
BBX 6 10 2 0
BITMAP
04
04
04
04
FC
04
04
04
04
FC
ENDCHAR
STARTCHAR universal
ENCODING 8704
SWIDTH 602 0
DWIDTH 9 0
BBX 7 10 1 0
BITMAP
82
82
82
FE
44
44
28
28
10
10
ENDCHAR
STARTCHAR existential
ENCODING 8707
SWIDTH 602 0
DWIDTH 9 0
BBX 6 10 2 0
BITMAP
FC
04
04
04
7C
04
04
04
04
FC
ENDCHAR
STARTCHAR uni2204
ENCODING 8708
SWIDTH 602 0
DWIDTH 9 0
BBX 6 12 2 -1
BITMAP
04
FC
0C
0C
14
7C
24
24
44
44
FC
80
ENDCHAR
STARTCHAR minus
ENCODING 8722
SWIDTH 602 0
DWIDTH 9 0
BBX 7 1 1 4
BITMAP
FE
ENDCHAR
STARTCHAR fraction
ENCODING 8725
SWIDTH 602 0
DWIDTH 9 0
BBX 7 10 1 0
BITMAP
02
04
04
08
10
10
20
40
40
80
ENDCHAR
STARTCHAR periodcentered
ENCODING 8729
SWIDTH 602 0
DWIDTH 9 0
BBX 1 2 4 3
BITMAP
80
80
ENDCHAR
STARTCHAR uni2236
ENCODING 8758
SWIDTH 602 0
DWIDTH 9 0
BBX 1 7 4 0
BITMAP
80
80
00
00
00
80
80
ENDCHAR
STARTCHAR uni2259
ENCODING 8793
SWIDTH 602 0
DWIDTH 9 0
BBX 7 6 1 3
BITMAP
18
24
00
FE
00
FE
ENDCHAR
STARTCHAR uni225A
ENCODING 8794
SWIDTH 602 0
DWIDTH 9 0
BBX 7 6 1 3
BITMAP
24
18
00
FE
00
FE
ENDCHAR
STARTCHAR notequal
ENCODING 8800
SWIDTH 602 0
DWIDTH 9 0
BBX 7 12 1 -1
BITMAP
02
02
04
04
08
FE
10
FE
20
20
40
40
ENDCHAR
STARTCHAR equivalence
ENCODING 8801
SWIDTH 602 0
DWIDTH 9 0
BBX 7 5 0 2
BITMAP
FE
00
FE
00
FE
ENDCHAR
STARTCHAR uni2262
ENCODING 8802
SWIDTH 602 0
DWIDTH 9 0
BBX 7 12 0 -1
BITMAP
02
02
04
04
FE
08
FE
10
FE
20
40
40
ENDCHAR
STARTCHAR lessequal
ENCODING 8804
SWIDTH 602 0
DWIDTH 9 0
BBX 4 9 2 -1
BITMAP
10
20
40
80
40
20
10
00
F0
ENDCHAR
STARTCHAR greaterequal
ENCODING 8805
SWIDTH 602 0
DWIDTH 9 0
BBX 4 9 3 -1
BITMAP
80
40
20
10
20
40
80
00
F0
ENDCHAR
STARTCHAR uni226E
ENCODING 8814
SWIDTH 602 0
DWIDTH 9 0
BBX 6 12 1 -1
BITMAP
04
04
08
08
10
30
60
20
50
48
80
80
ENDCHAR
STARTCHAR uni226F
ENCODING 8815
SWIDTH 602 0
DWIDTH 9 0
BBX 6 12 2 -1
BITMAP
04
04
08
48
30
10
28
30
60
40
80
80
ENDCHAR
STARTCHAR uni2270
ENCODING 8816
SWIDTH 602 0
DWIDTH 9 0
BBX 6 12 1 -2
BITMAP
04
04
08
18
30
50
20
30
48
40
F8
80
ENDCHAR
STARTCHAR uni2271
ENCODING 8817
SWIDTH 602 0
DWIDTH 9 0
BBX 6 12 2 -2
BITMAP
04
04
48
28
10
18
30
20
40
40
F8
80
ENDCHAR
STARTCHAR SF100000
ENCODING 9472
SWIDTH 602 0
DWIDTH 9 0
BBX 9 1 0 5
BITMAP
FF80
ENDCHAR
STARTCHAR uni2501
ENCODING 9473
SWIDTH 602 0
DWIDTH 9 0
BBX 9 3 0 4
BITMAP
FF80
FF80
FF80
ENDCHAR
STARTCHAR SF110000
ENCODING 9474
SWIDTH 602 0
DWIDTH 9 0
BBX 1 15 4 -2
BITMAP
80
80
80
80
80
80
80
80
80
80
80
80
80
80
80
ENDCHAR
STARTCHAR uni2503
ENCODING 9475
SWIDTH 602 0
DWIDTH 9 0
BBX 3 15 3 -2
BITMAP
E0
E0
E0
E0
E0
E0
E0
E0
E0
E0
E0
E0
E0
E0
E0
ENDCHAR
STARTCHAR SF010000
ENCODING 9484
SWIDTH 602 0
DWIDTH 9 0
BBX 5 8 4 -2
BITMAP
F8
80
80
80
80
80
80
80
ENDCHAR
STARTCHAR uni250D
ENCODING 9485
SWIDTH 602 0
DWIDTH 9 0
BBX 6 9 3 -2
BITMAP
FC
FC
FC
40
40
40
40
40
40
ENDCHAR
STARTCHAR uni250E
ENCODING 9486
SWIDTH 602 0
DWIDTH 9 0
BBX 6 9 3 -2
BITMAP
E0
FC
E0
E0
E0
E0
E0
E0
E0
ENDCHAR
STARTCHAR uni250F
ENCODING 9487
SWIDTH 602 0
DWIDTH 9 0
BBX 6 9 3 -2
BITMAP
FC
FC
FC
E0
E0
E0
E0
E0
E0
ENDCHAR
STARTCHAR SF030000
ENCODING 9488
SWIDTH 602 0
DWIDTH 9 0
BBX 5 8 0 -2
BITMAP
F8
08
08
08
08
08
08
08
ENDCHAR
STARTCHAR uni2511
ENCODING 9489
SWIDTH 602 0
DWIDTH 9 0
BBX 6 9 0 -2
BITMAP
FC
FC
FC
08
08
08
08
08
08
ENDCHAR
STARTCHAR uni2512
ENCODING 9490
SWIDTH 602 0
DWIDTH 9 0
BBX 6 9 0 -2
BITMAP
1C
FC
1C
1C
1C
1C
1C
1C
1C
ENDCHAR
STARTCHAR uni2513
ENCODING 9491
SWIDTH 602 0
DWIDTH 9 0
BBX 6 9 0 -2
BITMAP
FC
FC
FC
1C
1C
1C
1C
1C
1C
ENDCHAR
STARTCHAR SF020000
ENCODING 9492
SWIDTH 602 0
DWIDTH 9 0
BBX 5 8 4 5
BITMAP
80
80
80
80
80
80
80
F8
ENDCHAR
STARTCHAR uni2515
ENCODING 9493
SWIDTH 602 0
DWIDTH 9 0
BBX 6 9 3 4
BITMAP
40
40
40
40
40
40
FC
FC
FC
ENDCHAR
STARTCHAR uni2516
ENCODING 9494
SWIDTH 602 0
DWIDTH 9 0
BBX 6 9 3 4
BITMAP
E0
E0
E0
E0
E0
E0
E0
FC
E0
ENDCHAR
STARTCHAR uni2517
ENCODING 9495
SWIDTH 602 0
DWIDTH 9 0
BBX 6 9 3 4
BITMAP
E0
E0
E0
E0
E0
E0
FC
FC
FC
ENDCHAR
STARTCHAR SF040000
ENCODING 9496
SWIDTH 602 0
DWIDTH 9 0
BBX 5 8 0 5
BITMAP
08
08
08
08
08
08
08
F8
ENDCHAR
STARTCHAR uni2519
ENCODING 9497
SWIDTH 602 0
DWIDTH 9 0
BBX 6 9 0 4
BITMAP
08
08
08
08
08
08
FC
FC
FC
ENDCHAR
STARTCHAR uni251A
ENCODING 9498
SWIDTH 602 0
DWIDTH 9 0
BBX 6 9 0 4
BITMAP
1C
1C
1C
1C
1C
1C
1C
FC
1C
ENDCHAR
STARTCHAR uni251B
ENCODING 9499
SWIDTH 602 0
DWIDTH 9 0
BBX 6 9 0 4
BITMAP
1C
1C
1C
1C
1C
1C
FC
FC
FC
ENDCHAR
STARTCHAR SF080000
ENCODING 9500
SWIDTH 602 0
DWIDTH 9 0
BBX 5 15 4 -2
BITMAP
80
80
80
80
80
80
80
F8
80
80
80
80
80
80
80
ENDCHAR
STARTCHAR uni251D
ENCODING 9501
SWIDTH 602 0
DWIDTH 9 0
BBX 6 15 3 -2
BITMAP
40
40
40
40
40
40
FC
FC
FC
40
40
40
40
40
40
ENDCHAR
STARTCHAR uni251E
ENCODING 9502
SWIDTH 602 0
DWIDTH 9 0
BBX 6 15 3 -2
BITMAP
E0
E0
E0
E0
E0
E0
E0
FC
E0
40
40
40
40
40
40
ENDCHAR
STARTCHAR uni251F
ENCODING 9503
SWIDTH 602 0
DWIDTH 9 0
BBX 6 15 3 -2
BITMAP
40
40
40
40
40
40
E0
FC
E0
E0
E0
E0
E0
E0
E0
ENDCHAR
STARTCHAR uni2520
ENCODING 9504
SWIDTH 602 0
DWIDTH 9 0
BBX 6 15 3 -2
BITMAP
E0
E0
E0
E0
E0
E0
E0
FC
E0
E0
E0
E0
E0
E0
E0
ENDCHAR
STARTCHAR uni2521
ENCODING 9505
SWIDTH 602 0
DWIDTH 9 0
BBX 6 15 3 -2
BITMAP
E0
E0
E0
E0
E0
E0
FC
FC
FC
40
40
40
40
40
40
ENDCHAR
STARTCHAR uni2522
ENCODING 9506
SWIDTH 602 0
DWIDTH 9 0
BBX 6 15 3 -2
BITMAP
40
40
40
40
40
40
FC
FC
FC
E0
E0
E0
E0
E0
E0
ENDCHAR
STARTCHAR uni2523
ENCODING 9507
SWIDTH 602 0
DWIDTH 9 0
BBX 6 15 3 -2
BITMAP
E0
E0
E0
E0
E0
E0
FC
FC
FC
E0
E0
E0
E0
E0
E0
ENDCHAR
STARTCHAR SF090000
ENCODING 9508
SWIDTH 602 0
DWIDTH 9 0
BBX 5 15 0 -2
BITMAP
08
08
08
08
08
08
08
F8
08
08
08
08
08
08
08
ENDCHAR
STARTCHAR uni2525
ENCODING 9509
SWIDTH 602 0
DWIDTH 9 0
BBX 6 15 0 -2
BITMAP
08
08
08
08
08
08
FC
FC
FC
08
08
08
08
08
08
ENDCHAR
STARTCHAR uni2526
ENCODING 9510
SWIDTH 602 0
DWIDTH 9 0
BBX 6 15 0 -2
BITMAP
1C
1C
1C
1C
1C
1C
1C
FC
1C
08
08
08
08
08
08
ENDCHAR
STARTCHAR uni2527
ENCODING 9511
SWIDTH 602 0
DWIDTH 9 0
BBX 6 15 0 -2
BITMAP
08
08
08
08
08
08
1C
FC
1C
1C
1C
1C
1C
1C
1C
ENDCHAR
STARTCHAR uni2528
ENCODING 9512
SWIDTH 602 0
DWIDTH 9 0
BBX 6 15 0 -2
BITMAP
1C
1C
1C
1C
1C
1C
1C
FC
1C
1C
1C
1C
1C
1C
1C
ENDCHAR
STARTCHAR uni2529
ENCODING 9513
SWIDTH 602 0
DWIDTH 9 0
BBX 6 15 0 -2
BITMAP
1C
1C
1C
1C
1C
1C
FC
FC
FC
08
08
08
08
08
08
ENDCHAR
STARTCHAR uni252A
ENCODING 9514
SWIDTH 602 0
DWIDTH 9 0
BBX 6 15 0 -2
BITMAP
08
08
08
08
08
08
FC
FC
FC
1C
1C
1C
1C
1C
1C
ENDCHAR
STARTCHAR uni252B
ENCODING 9515
SWIDTH 602 0
DWIDTH 9 0
BBX 6 15 0 -2
BITMAP
1C
1C
1C
1C
1C
1C
FC
FC
FC
1C
1C
1C
1C
1C
1C
ENDCHAR
STARTCHAR SF060000
ENCODING 9516
SWIDTH 602 0
DWIDTH 9 0
BBX 9 8 0 -2
BITMAP
FF80
0800
0800
0800
0800
0800
0800
0800
ENDCHAR
STARTCHAR uni252D
ENCODING 9517
SWIDTH 602 0
DWIDTH 9 0
BBX 9 9 0 -2
BITMAP
FC00
FF80
FC00
0800
0800
0800
0800
0800
0800
ENDCHAR
STARTCHAR uni252E
ENCODING 9518
SWIDTH 602 0
DWIDTH 9 0
BBX 9 9 0 -2
BITMAP
1F80
FF80
1F80
0800
0800
0800
0800
0800
0800
ENDCHAR
STARTCHAR uni252F
ENCODING 9519
SWIDTH 602 0
DWIDTH 9 0
BBX 9 9 0 -2
BITMAP
FF80
FF80
FF80
0800
0800
0800
0800
0800
0800
ENDCHAR
STARTCHAR uni2530
ENCODING 9520
SWIDTH 602 0
DWIDTH 9 0
BBX 9 9 0 -2
BITMAP
1C00
FF80
1C00
1C00
1C00
1C00
1C00
1C00
1C00
ENDCHAR
STARTCHAR uni2531
ENCODING 9521
SWIDTH 602 0
DWIDTH 9 0
BBX 9 9 0 -2
BITMAP
FC00
FF80
FC00
1C00
1C00
1C00
1C00
1C00
1C00
ENDCHAR
STARTCHAR uni2532
ENCODING 9522
SWIDTH 602 0
DWIDTH 9 0
BBX 9 9 0 -2
BITMAP
1F80
FF80
1F80
1C00
1C00
1C00
1C00
1C00
1C00
ENDCHAR
STARTCHAR uni2533
ENCODING 9523
SWIDTH 602 0
DWIDTH 9 0
BBX 9 9 0 -2
BITMAP
FF80
FF80
FF80
1C00
1C00
1C00
1C00
1C00
1C00
ENDCHAR
STARTCHAR SF070000
ENCODING 9524
SWIDTH 602 0
DWIDTH 9 0
BBX 9 8 0 5
BITMAP
0800
0800
0800
0800
0800
0800
0800
FF80
ENDCHAR
STARTCHAR uni2535
ENCODING 9525
SWIDTH 602 0
DWIDTH 9 0
BBX 9 9 0 4
BITMAP
0800
0800
0800
0800
0800
0800
FC00
FF80
FC00
ENDCHAR
STARTCHAR uni2536
ENCODING 9526
SWIDTH 602 0
DWIDTH 9 0
BBX 9 9 0 4
BITMAP
0800
0800
0800
0800
0800
0800
1F80
FF80
1F80
ENDCHAR
STARTCHAR uni2537
ENCODING 9527
SWIDTH 602 0
DWIDTH 9 0
BBX 9 9 0 4
BITMAP
0800
0800
0800
0800
0800
0800
FF80
FF80
FF80
ENDCHAR
STARTCHAR uni2538
ENCODING 9528
SWIDTH 602 0
DWIDTH 9 0
BBX 9 9 0 4
BITMAP
1C00
1C00
1C00
1C00
1C00
1C00
1C00
FF80
1C00
ENDCHAR
STARTCHAR uni2539
ENCODING 9529
SWIDTH 602 0
DWIDTH 9 0
BBX 9 9 0 4
BITMAP
1C00
1C00
1C00
1C00
1C00
1C00
FC00
FF80
FC00
ENDCHAR
STARTCHAR uni253A
ENCODING 9530
SWIDTH 602 0
DWIDTH 9 0
BBX 9 9 0 4
BITMAP
1C00
1C00
1C00
1C00
1C00
1C00
1F80
FF80
1F80
ENDCHAR
STARTCHAR uni253B
ENCODING 9531
SWIDTH 602 0
DWIDTH 9 0
BBX 9 9 0 4
BITMAP
1C00
1C00
1C00
1C00
1C00
1C00
FF80
FF80
FF80
ENDCHAR
STARTCHAR SF050000
ENCODING 9532
SWIDTH 602 0
DWIDTH 9 0
BBX 9 15 0 -2
BITMAP
0800
0800
0800
0800
0800
0800
0800
FF80
0800
0800
0800
0800
0800
0800
0800
ENDCHAR
STARTCHAR uni253D
ENCODING 9533
SWIDTH 602 0
DWIDTH 9 0
BBX 9 15 0 -2
BITMAP
0800
0800
0800
0800
0800
0800
FC00
FF80
FC00
0800
0800
0800
0800
0800
0800
ENDCHAR
STARTCHAR uni253E
ENCODING 9534
SWIDTH 602 0
DWIDTH 9 0
BBX 9 15 0 -2
BITMAP
0800
0800
0800
0800
0800
0800
1F80
FF80
1F80
0800
0800
0800
0800
0800
0800
ENDCHAR
STARTCHAR uni253F
ENCODING 9535
SWIDTH 602 0
DWIDTH 9 0
BBX 9 15 0 -2
BITMAP
0800
0800
0800
0800
0800
0800
FF80
FF80
FF80
0800
0800
0800
0800
0800
0800
ENDCHAR
STARTCHAR uni2540
ENCODING 9536
SWIDTH 602 0
DWIDTH 9 0
BBX 9 15 0 -2
BITMAP
1C00
1C00
1C00
1C00
1C00
1C00
1C00
FF80
1C00
0800
0800
0800
0800
0800
0800
ENDCHAR
STARTCHAR uni2541
ENCODING 9537
SWIDTH 602 0
DWIDTH 9 0
BBX 9 15 0 -2
BITMAP
0800
0800
0800
0800
0800
0800
1C00
FF80
1C00
1C00
1C00
1C00
1C00
1C00
1C00
ENDCHAR
STARTCHAR uni2542
ENCODING 9538
SWIDTH 602 0
DWIDTH 9 0
BBX 9 15 0 -2
BITMAP
1C00
1C00
1C00
1C00
1C00
1C00
1C00
FF80
1C00
1C00
1C00
1C00
1C00
1C00
1C00
ENDCHAR
STARTCHAR uni2543
ENCODING 9539
SWIDTH 602 0
DWIDTH 9 0
BBX 9 15 0 -2
BITMAP
1C00
1C00
1C00
1C00
1C00
1C00
FC00
FF80
FC00
0800
0800
0800
0800
0800
0800
ENDCHAR
STARTCHAR uni2544
ENCODING 9540
SWIDTH 602 0
DWIDTH 9 0
BBX 9 15 0 -2
BITMAP
1C00
1C00
1C00
1C00
1C00
1C00
1F80
FF80
1F80
0800
0800
0800
0800
0800
0800
ENDCHAR
STARTCHAR uni2545
ENCODING 9541
SWIDTH 602 0
DWIDTH 9 0
BBX 9 15 0 -2
BITMAP
0800
0800
0800
0800
0800
0800
FC00
FF80
FC00
1C00
1C00
1C00
1C00
1C00
1C00
ENDCHAR
STARTCHAR uni2546
ENCODING 9542
SWIDTH 602 0
DWIDTH 9 0
BBX 9 15 0 -2
BITMAP
0800
0800
0800
0800
0800
0800
1F80
FF80
1F80
1C00
1C00
1C00
1C00
1C00
1C00
ENDCHAR
STARTCHAR uni2547
ENCODING 9543
SWIDTH 602 0
DWIDTH 9 0
BBX 9 15 0 -2
BITMAP
1C00
1C00
1C00
1C00
1C00
1C00
FF80
FF80
FF80
0800
0800
0800
0800
0800
0800
ENDCHAR
STARTCHAR uni2548
ENCODING 9544
SWIDTH 602 0
DWIDTH 9 0
BBX 9 15 0 -2
BITMAP
0800
0800
0800
0800
0800
0800
FF80
FF80
FF80
1C00
1C00
1C00
1C00
1C00
1C00
ENDCHAR
STARTCHAR uni2549
ENCODING 9545
SWIDTH 602 0
DWIDTH 9 0
BBX 9 15 0 -2
BITMAP
1C00
1C00
1C00
1C00
1C00
1C00
FC00
FF80
FC00
1C00
1C00
1C00
1C00
1C00
1C00
ENDCHAR
STARTCHAR uni254A
ENCODING 9546
SWIDTH 602 0
DWIDTH 9 0
BBX 9 15 0 -2
BITMAP
1C00
1C00
1C00
1C00
1C00
1C00
1F80
FF80
1F80
1C00
1C00
1C00
1C00
1C00
1C00
ENDCHAR
STARTCHAR uni254B
ENCODING 9547
SWIDTH 602 0
DWIDTH 9 0
BBX 9 15 0 -2
BITMAP
1C00
1C00
1C00
1C00
1C00
1C00
FF80
FF80
FF80
1C00
1C00
1C00
1C00
1C00
1C00
ENDCHAR
STARTCHAR uni254C
ENCODING 9548
SWIDTH 602 0
DWIDTH 9 0
BBX 9 15 0 -2
BITMAP
0000
0000
0000
0000
0000
0000
0000
F780
0000
0000
0000
0000
0000
0000
0000
ENDCHAR
STARTCHAR uni254D
ENCODING 9549
SWIDTH 602 0
DWIDTH 9 0
BBX 9 15 0 -2
BITMAP
0000
0000
0000
0000
0000
0000
F780
F780
F780
0000
0000
0000
0000
0000
0000
ENDCHAR
STARTCHAR uni254E
ENCODING 9550
SWIDTH 602 0
DWIDTH 9 0
BBX 9 15 0 -2
BITMAP
0800
0800
0800
0800
0800
0800
0800
0000
0800
0800
0800
0800
0800
0800
0800
ENDCHAR
STARTCHAR uni254F
ENCODING 9551
SWIDTH 602 0
DWIDTH 9 0
BBX 9 15 0 -2
BITMAP
1C00
1C00
1C00
1C00
1C00
1C00
1C00
0000
1C00
1C00
1C00
1C00
1C00
1C00
1C00
ENDCHAR
STARTCHAR SF430000
ENCODING 9552
SWIDTH 602 0
DWIDTH 9 0
BBX 9 3 0 4
BITMAP
FF80
0000
FF80
ENDCHAR
STARTCHAR SF240000
ENCODING 9553
SWIDTH 602 0
DWIDTH 9 0
BBX 3 15 3 -2
BITMAP
A0
A0
A0
A0
A0
A0
A0
A0
A0
A0
A0
A0
A0
A0
A0
ENDCHAR
STARTCHAR SF390000
ENCODING 9556
SWIDTH 602 0
DWIDTH 9 0
BBX 6 9 3 -2
BITMAP
FC
80
BC
A0
A0
A0
A0
A0
A0
ENDCHAR
STARTCHAR SF250000
ENCODING 9559
SWIDTH 602 0
DWIDTH 9 0
BBX 6 9 0 -2
BITMAP
FC
04
F4
14
14
14
14
14
14
ENDCHAR
STARTCHAR SF380000
ENCODING 9562
SWIDTH 602 0
DWIDTH 9 0
BBX 6 9 3 4
BITMAP
A0
A0
A0
A0
A0
A0
BC
80
FC
ENDCHAR
STARTCHAR SF260000
ENCODING 9565
SWIDTH 602 0
DWIDTH 9 0
BBX 6 9 0 4
BITMAP
14
14
14
14
14
14
F4
04
FC
ENDCHAR
STARTCHAR SF420000
ENCODING 9568
SWIDTH 602 0
DWIDTH 9 0
BBX 6 15 3 -2
BITMAP
A0
A0
A0
A0
A0
A0
BC
80
BC
A0
A0
A0
A0
A0
A0
ENDCHAR
STARTCHAR SF230000
ENCODING 9571
SWIDTH 602 0
DWIDTH 9 0
BBX 6 15 0 -2
BITMAP
14
14
14
14
14
14
F4
04
F4
14
14
14
14
14
14
ENDCHAR
STARTCHAR SF410000
ENCODING 9574
SWIDTH 602 0
DWIDTH 9 0
BBX 9 9 0 -2
BITMAP
FF80
0000
F780
1400
1400
1400
1400
1400
1400
ENDCHAR
STARTCHAR SF400000
ENCODING 9577
SWIDTH 602 0
DWIDTH 9 0
BBX 9 9 0 4
BITMAP
1400
1400
1400
1400
1400
1400
F780
0000
FF80
ENDCHAR
STARTCHAR SF540000
ENCODING 9578
SWIDTH 602 0
DWIDTH 9 0
BBX 9 15 0 -2
BITMAP
0800
0800
0800
0800
0800
0800
FF80
0800
FF80
0800
0800
0800
0800
0800
0800
ENDCHAR
STARTCHAR SF530000
ENCODING 9579
SWIDTH 602 0
DWIDTH 9 0
BBX 9 15 0 -2
BITMAP
1400
1400
1400
1400
1400
1400
1400
FF80
1400
1400
1400
1400
1400
1400
1400
ENDCHAR
STARTCHAR SF440000
ENCODING 9580
SWIDTH 602 0
DWIDTH 9 0
BBX 9 15 0 -2
BITMAP
1400
1400
1400
1400
1400
1400
F780
0000
F780
1400
1400
1400
1400
1400
1400
ENDCHAR
STARTCHAR uni2574
ENCODING 9588
SWIDTH 602 0
DWIDTH 9 0
BBX 5 1 0 5
BITMAP
F8
ENDCHAR
STARTCHAR uni2575
ENCODING 9589
SWIDTH 602 0
DWIDTH 9 0
BBX 1 8 4 5
BITMAP
80
80
80
80
80
80
80
80
ENDCHAR
STARTCHAR uni2576
ENCODING 9590
SWIDTH 602 0
DWIDTH 9 0
BBX 5 1 4 5
BITMAP
F8
ENDCHAR
STARTCHAR uni2577
ENCODING 9591
SWIDTH 602 0
DWIDTH 9 0
BBX 1 8 4 -2
BITMAP
80
80
80
80
80
80
80
80
ENDCHAR
STARTCHAR uni2578
ENCODING 9592
SWIDTH 602 0
DWIDTH 9 0
BBX 6 3 0 4
BITMAP
FC
FC
FC
ENDCHAR
STARTCHAR uni2579
ENCODING 9593
SWIDTH 602 0
DWIDTH 9 0
BBX 3 9 3 4
BITMAP
E0
E0
E0
E0
E0
E0
E0
E0
E0
ENDCHAR
STARTCHAR uni257A
ENCODING 9594
SWIDTH 602 0
DWIDTH 9 0
BBX 6 3 3 4
BITMAP
FC
FC
FC
ENDCHAR
STARTCHAR uni257B
ENCODING 9595
SWIDTH 602 0
DWIDTH 9 0
BBX 3 9 3 -2
BITMAP
E0
E0
E0
E0
E0
E0
E0
E0
E0
ENDCHAR
STARTCHAR uni257C
ENCODING 9596
SWIDTH 602 0
DWIDTH 9 0
BBX 9 3 0 4
BITMAP
1F80
FF80
1F80
ENDCHAR
STARTCHAR uni257D
ENCODING 9597
SWIDTH 602 0
DWIDTH 9 0
BBX 3 15 3 -2
BITMAP
40
40
40
40
40
40
E0
E0
E0
E0
E0
E0
E0
E0
E0
ENDCHAR
STARTCHAR uni257E
ENCODING 9598
SWIDTH 602 0
DWIDTH 9 0
BBX 9 3 0 4
BITMAP
FC00
FF80
FC00
ENDCHAR
STARTCHAR uni257F
ENCODING 9599
SWIDTH 602 0
DWIDTH 9 0
BBX 3 15 3 -2
BITMAP
E0
E0
E0
E0
E0
E0
E0
E0
E0
40
40
40
40
40
40
ENDCHAR
STARTCHAR upblock
ENCODING 9600
SWIDTH 602 0
DWIDTH 9 0
BBX 9 16 0 -2
BITMAP
FF80
FF80
FF80
FF80
FF80
FF80
FF80
FF80
0000
0000
0000
0000
0000
0000
0000
0000
ENDCHAR
STARTCHAR uni2581
ENCODING 9601
SWIDTH 602 0
DWIDTH 9 0
BBX 9 2 0 -2
BITMAP
FF80
FF80
ENDCHAR
STARTCHAR uni2582
ENCODING 9602
SWIDTH 602 0
DWIDTH 9 0
BBX 9 4 0 -2
BITMAP
FF80
FF80
FF80
FF80
ENDCHAR
STARTCHAR uni2583
ENCODING 9603
SWIDTH 602 0
DWIDTH 9 0
BBX 9 6 0 -2
BITMAP
FF80
FF80
FF80
FF80
FF80
FF80
ENDCHAR
STARTCHAR dnblock
ENCODING 9604
SWIDTH 602 0
DWIDTH 9 0
BBX 9 8 0 -2
BITMAP
FF80
FF80
FF80
FF80
FF80
FF80
FF80
FF80
ENDCHAR
STARTCHAR uni2585
ENCODING 9605
SWIDTH 602 0
DWIDTH 9 0
BBX 9 10 0 -2
BITMAP
FF80
FF80
FF80
FF80
FF80
FF80
FF80
FF80
FF80
FF80
ENDCHAR
STARTCHAR uni2586
ENCODING 9606
SWIDTH 602 0
DWIDTH 9 0
BBX 9 12 0 -2
BITMAP
FF80
FF80
FF80
FF80
FF80
FF80
FF80
FF80
FF80
FF80
FF80
FF80
ENDCHAR
STARTCHAR uni2587
ENCODING 9607
SWIDTH 602 0
DWIDTH 9 0
BBX 9 14 0 -2
BITMAP
FF80
FF80
FF80
FF80
FF80
FF80
FF80
FF80
FF80
FF80
FF80
FF80
FF80
FF80
ENDCHAR
STARTCHAR block
ENCODING 9608
SWIDTH 602 0
DWIDTH 9 0
BBX 9 16 0 -2
BITMAP
FF80
FF80
FF80
FF80
FF80
FF80
FF80
FF80
FF80
FF80
FF80
FF80
FF80
FF80
FF80
FF80
ENDCHAR
STARTCHAR uni2589
ENCODING 9609
SWIDTH 602 0
DWIDTH 9 0
BBX 8 16 0 -2
BITMAP
FF
FF
FF
FF
FF
FF
FF
FF
FF
FF
FF
FF
FF
FF
FF
FF
ENDCHAR
STARTCHAR uni258A
ENCODING 9610
SWIDTH 602 0
DWIDTH 9 0
BBX 7 16 0 -2
BITMAP
FE
FE
FE
FE
FE
FE
FE
FE
FE
FE
FE
FE
FE
FE
FE
FE
ENDCHAR
STARTCHAR uni258B
ENCODING 9611
SWIDTH 602 0
DWIDTH 9 0
BBX 6 16 0 -2
BITMAP
FC
FC
FC
FC
FC
FC
FC
FC
FC
FC
FC
FC
FC
FC
FC
FC
ENDCHAR
STARTCHAR lfblock
ENCODING 9612
SWIDTH 602 0
DWIDTH 9 0
BBX 5 16 0 -2
BITMAP
F8
F8
F8
F8
F8
F8
F8
F8
F8
F8
F8
F8
F8
F8
F8
F8
ENDCHAR
STARTCHAR uni258D
ENCODING 9613
SWIDTH 602 0
DWIDTH 9 0
BBX 3 16 0 -2
BITMAP
E0
E0
E0
E0
E0
E0
E0
E0
E0
E0
E0
E0
E0
E0
E0
E0
ENDCHAR
STARTCHAR uni258E
ENCODING 9614
SWIDTH 602 0
DWIDTH 9 0
BBX 2 16 0 -2
BITMAP
C0
C0
C0
C0
C0
C0
C0
C0
C0
C0
C0
C0
C0
C0
C0
C0
ENDCHAR
STARTCHAR uni258F
ENCODING 9615
SWIDTH 602 0
DWIDTH 9 0
BBX 1 16 0 -2
BITMAP
80
80
80
80
80
80
80
80
80
80
80
80
80
80
80
80
ENDCHAR
STARTCHAR rtblock
ENCODING 9616
SWIDTH 602 0
DWIDTH 9 0
BBX 9 16 0 -2
BITMAP
0780
0780
0780
0780
0780
0780
0780
0780
0780
0780
0780
0780
0780
0780
0780
0780
ENDCHAR
STARTCHAR ltshade
ENCODING 9617
SWIDTH 602 0
DWIDTH 9 0
BBX 9 16 0 -2
BITMAP
0000
5500
0000
AA80
0000
5500
0000
AA80
0000
5500
0000
AA80
0000
5500
0000
AA80
ENDCHAR
STARTCHAR shade
ENCODING 9618
SWIDTH 602 0
DWIDTH 9 0
BBX 9 16 0 -2
BITMAP
5500
AA80
5500
AA80
5500
AA80
5500
AA80
5500
AA80
5500
AA80
5500
AA80
5500
AA80
ENDCHAR
STARTCHAR dkshade
ENCODING 9619
SWIDTH 602 0
DWIDTH 9 0
BBX 9 16 0 -2
BITMAP
FF80
AA80
FF80
5500
FF80
AA80
FF80
5500
FF80
AA80
FF80
5500
FF80
AA80
FF80
5500
ENDCHAR
STARTCHAR uni2594
ENCODING 9620
SWIDTH 602 0
DWIDTH 9 0
BBX 9 16 0 -2
BITMAP
FF80
FF80
0000
0000
0000
0000
0000
0000
0000
0000
0000
0000
0000
0000
0000
0000
ENDCHAR
STARTCHAR uni2595
ENCODING 9621
SWIDTH 602 0
DWIDTH 9 0
BBX 9 16 0 -2
BITMAP
0180
0180
0180
0180
0180
0180
0180
0180
0180
0180
0180
0180
0180
0180
0180
0180
ENDCHAR
STARTCHAR fi
ENCODING -1
SWIDTH 602 0
DWIDTH 9 0
BBX 7 11 0 0
BITMAP
1A
22
20
FE
22
22
22
22
22
22
22
ENDCHAR
STARTCHAR fl
ENCODING -1
SWIDTH 602 0
DWIDTH 9 0
BBX 7 11 0 0
BITMAP
1E
22
22
FA
22
22
22
22
22
22
22
ENDCHAR
ENDFONT
